
<global>
amp_veltrack=0
ampeg_release=0.45
</global>

<group>
group_label=Group_43-84
lpc_hicc1=84
lpc_locc1=43

<region>
end=192000
hikey=a#2
hivel=127
lokey=a2
lovel=0
lpc=i5vGQvgZvMPqehxE4KUaxK320kNTHV/D7izIQtHeFsKxoA1BUrEPvyhsQEAgNyO/FG0xwSLttEG5NL3BZ/9VQbWwZsBiTdhADS53wX1nhEGsz1PBYgsdQT12ncBBUpI/
lpc_rms=-33.80
pitch_keycenter=a#2
sample=Horn_marcato_whole_MF_A#2.opus
</region>

<region>
end=192000
hikey=a#3
hivel=127
lokey=a3
lovel=0
lpc=Fm2cQoUkXMPX60tDrrMAwupXM8IXeB9A01xeQePZokAHhQTAKlbZwK7VIMA4Y9FA5gWUQO22gMBDWN7AQJjaP4hUAkH7OyK/uEbkwK/PuT/baJZAjyh4wEDnsz9EYCC+
lpc_rms=-32.07
pitch_keycenter=a#3
sample=Horn_marcato_whole_MF_A#3.opus
</region>

<region>
end=192000
hikey=a#4
hivel=127
lokey=a4
lovel=0
lpc=b1aQQlLTVsPMlmxDAPeowivKGcJPqu9BxOtBQdlgZsFjOHrADwjvQNoW3z/5QR+/MYRQwIvVB8CxemxAaJdJQK80n7+DxJXARXSivjNxcEDea/k/L7XQPw+fJMG/v9pA
lpc_rms=-29.91
pitch_keycenter=a#4
sample=Horn_marcato_whole_MF_A#4.opus
</region>

<region>
end=192000
hikey=c3
hivel=127
lokey=b2
lovel=0
lpc=NiONQvUPZ8PH8ZhD0wFMw79eeEKlWgNB6cGxwU8QbkFq/tW+YUELwT9Kp0A92F1ADBwwwCVp7b8mG6u/HeqSQDBP0D62n0jATNWev9aKEkA/vWO/yMY0QOD8R8C/S4U/
lpc_rms=-37.55
pitch_keycenter=c3
sample=Horn_marcato_whole_MF_C3.opus
</region>

<region>
end=192000
hikey=c4
hivel=127
lokey=b3
lovel=0
lpc=tyiTQntigsNpw8ZD4z2rw0IhMUNTXCLCjWK2wfQmAUKb02fBiJHJwKe1XEGRltHAPhKdwFd2EUFPTnTAEKfqv3ugoz9a7VtAUS0BwY9EHEFdK7zA5QADwEM/uEDbxyHA
lpc_rms=-29.21
pitch_keycenter=c4
sample=Horn_marcato_whole_MF_C4.opus
</region>

<region>
end=192000
hikey=c5
hivel=127
lokey=b4
lovel=0
lpc=xyFjQj3hL8Ph0V5D8GACwzxHPUE+b+ZBCXlOwRxTg8DO3IVAHd7SQCM+M8EPhPy/mHKYQTvtFsEHs1jBncaAQdrgvT09bjjBR2wVQb8HOr2DxSTBIjGgQWhrpsHq+BhB
lpc_rms=-31.27
pitch_keycenter=c5
sample=Horn_marcato_whole_MF_C5.opus
</region>

<region>
end=192000
hikey=d3
hivel=127
lokey=c#3
lovel=0
lpc=yPdQQtdwIcMoTUVD5S3awjsp5kBfHM9BK35MwXTH278at1lADVwUvxuLlT/1zS7AoiYwP6oonkC2TnjAYGAvwDrqiEDWWUU+LVRewKwWez+5eDxAhwspwLU1Wb4bKmA/
lpc_rms=-35.27
pitch_keycenter=d3
sample=Horn_marcato_whole_MF_D3.opus
</region>

<region>
end=192000
hikey=d4
hivel=127
lokey=c#4
lovel=0
lpc=VJiqQoVUlcNUzu1D7o3sw1iUqkOE8DvDBn+IQr8e3kDHsy/Cr1FKQnX1BsIW/tVAbBxBQXk+B8FPtR7A41jvvXR9SkE3E2jBs0W9P0vCN0Hp6W3B5QchQUqVFcAvzgq/
lpc_rms=-27.11
pitch_keycenter=d4
sample=Horn_marcato_whole_MF_D4.opus
</region>

<region>
end=192000
hikey=d5
hivel=127
lokey=c#5
lovel=0
lpc=q7rlQY4EuMK3SwVD4TLgwpCjYELNYl7BKN5TQD1dn8Ai6Aq/8MAXQYPW7cCIUdi/bw7SQKe9u8Bp9Tw/SY20QL4XU8Bn0YnAuEGVQPmP5UCCN7PBbT7nQXgWp8HREuZA
lpc_rms=-35.20
pitch_keycenter=d5
sample=Horn_marcato_whole_MF_D5.opus
</region>

<region>
end=192000
hikey=e3
hivel=127
lokey=d#3
lovel=0
lpc=NSCSQkpgV8OxfmVDMwqkwj477MHLluVBqxuTQOMERcHodC+/7+34QEgRmj55zq7AVVZAQE2Wtj941dLAMdsYQIsvy0DuZaK/+3+xwCnH7b+mn6VALgNcQG3Qv8DqvQFA
lpc_rms=-32.18
pitch_keycenter=e3
sample=Horn_marcato_whole_MF_E3.opus
</region>

<region>
end=192000
hikey=e4
hivel=127
lokey=d#4
lovel=0
lpc=HK1mQi9sNsNNiGZDtskGw71vdkEuGchBN0xnwdOFZ0DKvtM/K9v/v5kFyb/PMI2+Ibu2QAKtScAW3o7ALKnCQLblirveZYDA6B0YQNHDcT5QrYS/X80WPxQCbb+lZks/
lpc_rms=-29.02
pitch_keycenter=e4
sample=Horn_marcato_whole_MF_E4.opus
</region>

<region>
end=192000
hikey=e5
hivel=127
lokey=d#5
lovel=0
lpc=NP+LQkLBdcMrstxDX0wLxFdDEETpNwPEKUXbQ3qNqcMad3FDzroWw1jPnUJPkCbCq7QGQqqvtcGerwxB3Up4wIGBlkC8XtBAywUTws+XpUJcIevCsT7yQnytp8IFRu5B
lpc_rms=-29.64
pitch_keycenter=E5
sample=Horn_marcato_whole_MF_E5.opus
</region>

<region>
end=192000
hivel=127
key=f#2
lovel=0
lpc=9a8VQz/43sNDqdtDq6zFwvlPaMIZ40TBGNapQQ3kOUEpGty+uDRwwNycu8BaZR1ALYw/QA3Rwj6TYQ+/DZhywLZ5RUDvsBJA+nXqwE4Pbz/FKr1A2PbOQBOHgMHrC+tA
lpc_rms=-39.61
sample=Horn_marcato_whole_MF_F#2.opus
</region>

<region>
end=192000
hikey=f#3
hivel=127
lokey=f3
lovel=0
lpc=Aam1QtXjn8P8me5Dy0LEwyknOEMEGwLCSeOqwYi+50HF1fPB9LatQYjBHEB9hofBIiEOQXlN80DNA3XBEB30QC20t0AP6fTA0vYnwHqcu0D1PjZAMIkqwTocHkE5+VHA
lpc_rms=-33.25
pitch_keycenter=f#3
sample=Horn_marcato_whole_MF_F#3.opus
</region>

<region>
end=192000
hikey=f#4
hivel=127
lokey=f4
lovel=0
lpc=Yw5+Qs+/O8OJDFhDVOfWwuLocMDXQvlB2kTwwMMS4cCKSAFAqvvBP0OgZb/1R0e/Pap7QJoaxT/316rArxqWvyD48T959P8/8JH4PxNglsBObOS/FVUSQcoTKcF4f6ZA
lpc_rms=-26.57
pitch_keycenter=f#4
sample=Horn_marcato_whole_MF_F#4.opus
</region>

<region>
end=192000
hikey=F2
hivel=127
lokey=C2
lovel=0
lpc=FYLsQtFjvcOn3NpD1lIww/126MGplmRBu4CvQXx7Ar55VRHBnThSv+QTuj+TV4xA1GqQwC1LqD4TuFA/370zv/iYWkDDkee/90OEwCYxOUAEjDo/6JgWQNrJgMAqFbc/
lpc_rms=-40.04
pitch_keycenter=F2
sample=Horn_marcato_whole_MF_F2.opus
</region>

<region>
end=192000
hikey=g#2
hivel=127
lokey=g2
lovel=0
lpc=U3bVQh411cMLCD1E0qhHxH/GEUTvkKnDL84zQwdFvsILFXZCAQtTwqxhFkIFJwLBwwtSwZZSg0HoxJLBcQTYQSS68sHluLlB/NcKwezxHcHLL5pBvzxAwag3aj+GTdQ/
lpc_rms=-37.63
pitch_keycenter=g#2
sample=Horn_marcato_whole_MF_G#2.opus
</region>

<region>
end=192000
hikey=g#3
hivel=127
lokey=g3
lovel=0
lpc=WQzKQgNZncOnhLdDRyEfwwuPLcJcfXNCn5QRQYuR28HaT8+/Eu1CQW5Tj7/+mZXA4MUVQKO7c0B1xdu/k2aKwGEuQT+2gNdAOMAZwH55DsHIeNs/vapEQdjIHcHBKRxA
lpc_rms=-30.30
pitch_keycenter=g#3
sample=Horn_marcato_whole_MF_G#3.opus
</region>

<region>
end=192000
hikey=g#4
hivel=127
lokey=g4
lovel=0
lpc=3VugQvB/gsOZXrpDcmGfw9giOkNxy4jCOEuUwNyiB0I3QgLC/JA9QTUb90DQfBjBoaFxQKnZnkCesDrBVhAGQV+lh0DMX1LBtNucQMwhL0Ej77TBsagAQjZQ88F8NEpB
lpc_rms=-24.67
pitch_keycenter=g#4
sample=Horn_marcato_whole_MF_G#4.opus
</region>
</group>

<group>
group_label=Group_85-127
lpc_hicc1=127
lpc_locc1=85

<region>
end=192000
hikey=a#2
hivel=127
lokey=a2
lovel=0
lpc=r9RaQZjFFMLVh0NCDjBFwvGfPELJni3CVpsYQsvPAMLVBtFBUA2kwcFdfUFiEzfBefH7QBqymcBCFCJAiIxnvdQ7Q8BzbaFAS4qlwN4gjUCL1V7Aag4bQL2rsr9bPSk/
lpc_rms=-33.24
pitch_keycenter=a#2
sample=Horn_marcato_whole_FF_A#2.opus
</region>

<region>
end=192000
hikey=a#3
hivel=127
lokey=a3
lovel=0
lpc=dPVFQfGB8sFzjwxC7qACwlZF9EF5GuHBZg/KQcIpssEGjJRBP6pgwYZMIkFr+9nABwF/QP1Za7/Zbvu/C3xxQLYdlsB6crxACvO3wDWZj0BcZnvAebaEQC02VsCPRJ8/
lpc_rms=-26.49
pitch_keycenter=a#3
sample=Horn_marcato_whole_FF_A#3.opus
</region>

<region>
end=192000
hikey=a#4
hivel=127
lokey=a4
lovel=0
lpc=PZPbQEKZVsFNAU9B8W8uwQIuHUF2rw3BhTPvQKGpxcAHlZ5A502SwJrQfUAwGSnAkqrVP74lbr9DsRk/q48MP82k27/BVt8/cf6sv3sq2j+PXOG/kKZ6P7bsBr6TqIE+
lpc_rms=-24.82
pitch_keycenter=a#4
sample=Horn_marcato_whole_FF_A#4.opus
</region>

<region>
end=192000
hikey=c3
hivel=127
lokey=b2
lovel=0
lpc=1T4cQSQAwMGM3+NBEQfawcmnzUGGibvBf+ejQYyvicHR3VdBQ3IcwZ4MyEDd0TbAenUTPwpRjj9v4v6/Cxo2QO33aMDI12FANjcpwHA38T8jAby/g2ORP4q+dr85BQw/
lpc_rms=-33.78
pitch_keycenter=c3
sample=Horn_marcato_whole_FF_C3.opus
</region>

<region>
end=192000
hikey=c4
hivel=127
lokey=b3
lovel=0
lpc=cyc0QfKn18FMQPNBnFngwbBczUG6t7fBo8yfQTtjg8Eb0UVB3q/ywBAfiUCqipi/rsjtvx47eUC1ja7AiUHaQIGH+MDJ7fZA/pDPwBeYoUDwNIbA/+NxQNZgNMA9NJA/
lpc_rms=-26.45
pitch_keycenter=c4
sample=Horn_marcato_whole_FF_C4.opus
</region>

<region>
end=192000
hikey=c5
hivel=127
lokey=b4
lovel=0
lpc=LIkXQRkSrMF5wr5BXCWswdf8oEHQdpDBGsd4QVtuWcEdyxtBKWW7wE07lUCOsUPAmErXP+LGTb8kJ3a+VAAVQM2LlsCsw6lAjth0wL2xI0CqxgnAp3XOP8t5Vr9MDDE/
lpc_rms=-23.94
pitch_keycenter=c5
sample=Horn_marcato_whole_FF_C5.opus
</region>

<region>
end=192000
hikey=d3
hivel=127
lokey=c#3
lovel=0
lpc=hY4LQYlRnsFwN69B4aykwTHCmEHtxIbBivxqQXS3SMHTHyJBzWPtwCLVpUAxQEHAsietP7PtdD1670m/vArNP7kLGMD6QylA0CMIwAANoD/GPT2/8esfPxynFL88/cM+
lpc_rms=-31.06
pitch_keycenter=d3
sample=Horn_marcato_whole_FF_D3.opus
</region>

<region>
end=192000
hikey=d4
hivel=127
lokey=c#4
lovel=0
lpc=EVv0QNgxg8HGp4NBM29twYcecUHEE2DB+LsuQSy5+cAy8bhA2QyGwB1PMUAo0Z6/JRKsvvXtBkA15z/AttFuQLxLhMB1YHpAMvJAwBcgA0BH9vW/sNHfPxGheL9kPps+
lpc_rms=-27.41
pitch_keycenter=d4
sample=Horn_marcato_whole_FF_D4.opus
</region>

<region>
end=192000
hikey=d5
hivel=127
lokey=c#5
lovel=0
lpc=y6qZQN8sCMFa1/hAvIbTwC/IwEDi/5zAlZNqQF/zPMCxKxtAlaHYv5BqnT9lrQa/m9ydPj18cD5lVTi/M8J3P0SqsL9qwrs/H7cqvyPLHD8CKUW/yflFP+xERL5Bqis+
lpc_rms=-27.67
pitch_keycenter=d5
sample=Horn_marcato_whole_FF_D5.opus
</region>

<region>
end=192000
hikey=e3
hivel=127
lokey=d#3
lovel=0
lpc=x2JLQS6w+8GN6hVCfRANwvJD/0FOBuHBBg+/QRHvocFKco1BcHJowUuSM0GTrP7ALEG6QBEmY8AUw68/wxTmPcWyvL/U2hVATWYlwItuMEAQpSvAGMAWQNiXvr9EnBw/
lpc_rms=-28.35
pitch_keycenter=e3
sample=Horn_marcato_whole_FF_E3.opus
</region>

<region>
end=192000
hikey=e4
hivel=127
lokey=d#4
lovel=0
lpc=BZT7QB2Zj8GOtplB0HqHwdHreUHw9FnB/fIzQdGGG8EONQhBbHr2wHk84kAU6bfAdEuJQIdDJ8Drmgg/toqmPxgN+L9S3pk/1mwvPzIGC8CNJRRAtuzyv81JzT95qyu/
lpc_rms=-26.18
pitch_keycenter=e4
sample=Horn_marcato_whole_FF_E4.opus
</region>

<region>
end=192000
hikey=e5
hivel=127
lokey=d#5
lovel=0
lpc=wC66QF8nL8G7Ji9BI18ZwQJVEUEOf+zA+HK9QEOxpcBpSJVAlPJmwFYHL0D89e+/aQ+OPybCWb7W+w6+FlOCP1JNRb+NoZ2+s8azPzdp1L/RBwZAVDJtv1M5WL77CBw/
lpc_rms=-25.49
pitch_keycenter=E5
sample=Horn_marcato_whole_FF_E5.opus
</region>

<region>
end=192000
hivel=127
key=f#2
lovel=0
lpc=o/CdQfEqWcKnAIJCj0ZMwuGhD0KLWNDBk1SYQaIyWMEwSf5AOVQ8wAUjgrsPzL0/MKS/v1H5pz8TKL6/DDIfQNTficAW0JxAFmU7wCgd6L1n6wBAZYPsvyqqGz8q/bI9
lpc_rms=-35.35
sample=Horn_marcato_whole_FF_F#2.opus
</region>

<region>
end=192000
hikey=f#3
hivel=127
lokey=f3
lovel=0
lpc=3TcAQaxpksHWMaJBV8STwfFAh0F16nHBhEVQQU4bLcHt4gtBEyDmwGFL1EC7lsDAHnumQKzzdcD0VDlASYwgwH48AUBqpDy/+HhMvkaupz2/I7a+ywxTP3eyIb6+SuO9
lpc_rms=-31.32
pitch_keycenter=f#3
sample=Horn_marcato_whole_FF_F#3.opus
</region>

<region>
end=192000
hikey=f#4
hivel=127
lokey=f4
lovel=0
lpc=ySviQFLneMEdJYFB9wlawYItQUHi9S3BmRgVQXF468D6q61AA4t5wKoHOECiKxLAg076PxurwL5dO4a/ZyDRP2Xy679II/w/sNT0vyA1mD/N/SK+LejePn5Qfb8YZOI+
lpc_rms=-28.19
pitch_keycenter=f#4
sample=Horn_marcato_whole_FF_F#4.opus
</region>

<region>
end=192000
hikey=F2
hivel=127
lokey=C2
lovel=0
lpc=G20UQnYy78I7KitDJPAYw4IHzUIYFV3CqOitQQGzDcBLvf7ALkE+QdiLHMG2u7FAi/rxv3XgBD/i0XK/2JaMPyfK27/jAEVAoQAFwHJ1Mr+x/ao/WvbuPu1G77+pbJU/
lpc_rms=-37.06
pitch_keycenter=F2
sample=Horn_marcato_whole_FF_F2.opus
</region>

<region>
end=192000
hikey=g#2
hivel=127
lokey=g2
lovel=0
lpc=nx/YQQqYssLYng5D9zUkw68zJ0PyaiHDOyAXQwAIC8MMIPlChBzXwsA1tELT65HCV0NoQtd/NcK/wAZC7pmwwdpHKEElBZi/rmyCwAB32UDq5gPB4Hr3QJGdnsAX4NM/
lpc_rms=-33.01
pitch_keycenter=g#2
sample=Horn_marcato_whole_FF_G#2.opus
</region>

<region>
end=192000
hikey=g#3
hivel=127
lokey=g3
lovel=0
lpc=LU1GQWtc8sFdDwpCzfH4wS0G5EE3n87BTu+0QUyRm8EDdXdBi/M0wZbbAUGCGqTA7VoaQL1IiD0DMTG/ZTSTP+8DRMCFjG5A/aEwwCu+EECSBfW/ARqBP7okxb2q/Z88
lpc_rms=-27.77
pitch_keycenter=g#3
sample=Horn_marcato_whole_FF_G#3.opus
</region>

<region>
end=192000
hikey=g#4
hivel=127
lokey=g4
lovel=0
lpc=QS3BQF4rT8GYMFVB9aVAwdRbM0EOcxfBdxUCQYTC38AcI6JAWeJawOhQJ0D/SPS/vdTBP384G7+5LQ2/t4tqP0bmZb95anw/AO1Ev7UpKD5JWtE+BhaavuCicj5wfAy+
lpc_rms=-27.12
pitch_keycenter=g#4
sample=Horn_marcato_whole_FF_G#4.opus
</region>
</group>

<group>
group_label=Group_0-42
lpc_hicc1=42
lpc_locc1=0

<region>
end=192000
hikey=a#2
hivel=127
lokey=a2
lovel=0
lpc=7l8/Q84r3sOxtXxDduiAQXK9EELcaCrChoDwwF0Umr/2wGPABMFfwLmLar2idRRA1zvPQPrg0z8ijTpAgCtMwKsuD8Bq5WbAOKWjPp1sDD6ceG6/UprLvu0dE0EQ5LnA
lpc_rms=-47.77
pitch_keycenter=a#2
sample=Horn_marcato_whole_PP_A#2.opus
</region>

<region>
end=192000
hikey=a#3
hivel=127
lokey=a3
lovel=0
lpc=59CaQ4nSOcRNv95DQSlzQqTIiL0ZC4rCLNfXwTQ3hUEU6wdB2CYlQJpbpj95vrrA4i/5wKZuMEAU8gZBsRcuP1iCqj+AEwk/nGwNwG43iz6DJJrATAIcwQD+ZUG82S/A
lpc_rms=-39.30
pitch_keycenter=a#3
sample=Horn_marcato_whole_PP_A#3.opus
</region>

<region>
end=192000
hikey=a#4
hivel=127
lokey=a4
lovel=0
lpc=pJcrRLU2rcQ91wlEuO90Qxj5TEK/0D3CZ4yGwpAiOMLQsZzB9WW1P09rkUGPYfhBt2WZQcs8cz/A7W/A6zbNwPWYQcG1TgvBYw95QPk9HUEWwghBlV6fwNDZdsINeIBC
lpc_rms=-25.23
pitch_keycenter=a#4
sample=Horn_marcato_whole_PP_A#4.opus
</region>

<region>
end=192000
hikey=c3
hivel=127
lokey=b2
lovel=0
lpc=ytTOQjnDPMPimF5C4UTXQUxaVEGLdlC/1e+RwPMRZcCGkxfAW0i/v8oERbxGXqY/mZ6/P5dukD8VqWQ/hwBgv61gJb/0l56+ppJjPrkhrD4L2HE+xf8Dv0lLQ8A9AS5A
lpc_rms=-50.85
pitch_keycenter=c3
sample=Horn_marcato_whole_PP_C3.opus
</region>

<region>
end=192000
hikey=c4
hivel=127
lokey=b3
lovel=0
lpc=bJK1Q29YYcT1JQpEBzKsQicHgkDY+7PCdP4KwrFnGUF6YDxAHBiLwOKEs8CLmmVBkM9qQaiU6z/NFvE/20BrwToKIsGf7xJAY2zUQJPPB0DMaORAnVK6QPiNA8K3JZtB
lpc_rms=-37.98
pitch_keycenter=c4
sample=Horn_marcato_whole_PP_C4.opus
</region>

<region>
end=192000
hikey=c5
hivel=127
lokey=b4
lovel=0
lpc=0O6cQwYwdcTceYhEaIDewx3shEJ5X9zCXj3kQGOu3EK5NK7Bw5Nowhrn+EGOncdBSXo/wqjuSUA6PgpC8ZUMQbkUlsG9RYrBuvNTP4wMTMGNzbpB6fHIQsUuK8NlEZZC
lpc_rms=-32.44
pitch_keycenter=c5
sample=Horn_marcato_whole_PP_C5.opus
</region>

<region>
end=192000
hikey=d3
hivel=127
lokey=c#3
lovel=0
lpc=8/8QQwNUi8MMP7lCeXwoQlxjnEFtP4HAC30JwZqRt8CYcV/ARLjqv4gpUT/N/ds/Oa0/QL2tK0CJHQW/t/0ywMXgEsCcpTK/EOmOP6cJ1T7Pyxk/StKrPi6lXz8dGVm/
lpc_rms=-47.83
pitch_keycenter=d3
sample=Horn_marcato_whole_PP_D3.opus
</region>

<region>
end=192000
hikey=d4
hivel=127
lokey=c#4
lovel=0
lpc=AaYOQxcSgMPUqX9CmNIfQuO8pkGlQK5AcxJiwKjhv8DtNZrAOJNRwOJhEr+qz5E/yFZTP1uILj8YkYw/hkedP1NXWL5GBs6+s4eYv87QA8AiYDq/Q/JhPwLzJD8gnm8/
lpc_rms=-39.89
pitch_keycenter=d4
sample=Horn_marcato_whole_PP_D4.opus
</region>

<region>
end=192000
hikey=d5
hivel=127
lokey=c#5
lovel=0
lpc=BxOcQ0QUYcTSkV5EI+hEw8omE8OccKPAap8xQuohAUIq89TAvChdwcAN28AN15U/iHZQQatICL/LfyXBeNwsQHZRoEGoOP/AvqGmwZJLmsGd4hdC2MzDQl1+OMMcxrBC
lpc_rms=-30.95
pitch_keycenter=d5
sample=Horn_marcato_whole_PP_D5.opus
</region>

<region>
end=192000
hikey=e3
hivel=127
lokey=d#3
lovel=0
lpc=FOuCQ+rQPMQ9pTFE9N9nwwLZ1EIWGw/D1P5KQvm260DvR+TAYkSmwb38oUGHCohBoZ7XwRwUcUGHvrpAvfzQwG8dB8FLhZ1AaikUQdYUhsGDlHlAZjp5QPeyP0CwFCjA
lpc_rms=-40.81
pitch_keycenter=e3
sample=Horn_marcato_whole_PP_E3.opus
</region>

<region>
end=192000
hikey=e4
hivel=127
lokey=d#4
lovel=0
lpc=QCOBQ64fQ8SGu01EtxOuwznEykJyXuTCvuysQrfyQMBS0zrCE6arQepJa792UzpBDR9FwWgvckGWn0HBVxiewSNLBkJpO2XBewJdvvrab0AHUpXAaWYlQkpjkcInVQpC
lpc_rms=-37.45
pitch_keycenter=e4
sample=Horn_marcato_whole_PP_E4.opus
</region>

<region>
end=192000
hikey=e5
hivel=127
lokey=d#5
lovel=0
lpc=miOMQ6WKdsR3ZbhE0fiTxCrXEURdaITDSTg/Q+RPBMN3dOrAxfkkQ+bBBMOyfbzBz1acQTG3t0JT2FDC3rfKwn0AP0NnpvDCHhPhwd7Ag0K3wD5BitTrwdn3WcFSuaBB
lpc_rms=-33.45
pitch_keycenter=E5
sample=Horn_marcato_whole_PP_E5.opus
</region>

<region>
end=192000
hivel=127
key=f#2
lovel=0
lpc=TJorQ5CB4MOwJaxD5bxAwlph/kHsfYLCe2jAQBorTUGqCXHAI+EkwRrgKkG18J1AeAUnwNwLnL++gKbAiEcRQHzxH0CAJZm/yn6qQCAy38BKbxvAwKkJQeRQxsC6uwFA
lpc_rms=-46.41
sample=Horn_marcato_whole_PP_F#2.opus
</region>

<region>
end=192000
hikey=f#3
hivel=127
lokey=f3
lovel=0
lpc=4VQ6Q+Vy5MP9T5VDcJOXQW7MW8GIxQbCWJwlwRYp4kA/VH0/BWiOwCuPmkCJSihB5VgrwK7OOsD/pqc/B46TwL65d8AxgkFAPe0DQRPPLz/4LALBXAfiwEn3AkEJgso+
lpc_rms=-42.63
pitch_keycenter=f#3
sample=Horn_marcato_whole_PP_F#3.opus
</region>

<region>
end=192000
hikey=f#4
hivel=127
lokey=f4
lovel=0
lpc=SviSQ6IJT8QTXDNE98q8wsBej8LW9jHCgQz3QfKJ/kCHwAvCIQP0P4TCqkGX5nlB4K2iPgfsLMEwylM/NpshwDoAEsEXn/w/I7Aowbhf9kCWYe5BfNl/QTuNncJn0CZC
lpc_rms=-36.36
pitch_keycenter=f#4
sample=Horn_marcato_whole_PP_F#4.opus
</region>

<region>
end=192000
hikey=F2
hivel=127
lokey=C2
lovel=0
lpc=NOA0Q7P50sO/m25D9+wQQvDBI0GVAQjCFJR8wbInEr59EAZA5IcUwPHHRkAD3dtAzjKivg12wz161FQ/ehbhvxX1YsCn6Q2+NgrSvXFI3T43MTK/cBVQP7M2jUDaBEvA
lpc_rms=-46.49
pitch_keycenter=F2
sample=Horn_marcato_whole_PP_F2.opus
</region>

<region>
end=192000
hikey=g#2
hivel=127
lokey=g2
lovel=0
lpc=23MuQ3NA/cMqTflDUHFGw80YzULbCOTCjgcpQrmrkEDFmrNA0iawwe/UIUGi7AJBAxTSvwpNjcDJkZo/SSCwPloZe0AAmNzArbsWQDwnHr+JeY3ALesLQeXIMMCrRxO/
lpc_rms=-43.90
pitch_keycenter=g#2
sample=Horn_marcato_whole_PP_G#2.opus
</region>

<region>
end=192000
hikey=g#3
hivel=127
lokey=g3
lovel=0
lpc=pzVIQ5yezsOsWCpDXCVaQuaYEkF3s1HA+v2Bv+KcvMDvwynBAaapwI3tpj9eSxdA5DF/P0Z+m0B9W5VAh0dbwHKhBMF/s67ACKESQBVIQ0D68Bi9j9skQCnuWEEHfEfB
lpc_rms=-38.74
pitch_keycenter=g#3
sample=Horn_marcato_whole_PP_G#3.opus
</region>

<region>
end=192000
hikey=g#4
hivel=127
lokey=g4
lovel=0
lpc=qLy7QxNFXsRKhAJELmv1QmoRRMIH/KnCc5IWwhgwZEGM0/dBd7SFQbSPecCsUj3BFZM7wWzCyT/+oPxA1GAiwNviBz8bagBBhFrOQK5ljsC7hjXBTtzRwLXU2z9FMSpB
lpc_rms=-30.71
pitch_keycenter=g#4
sample=Horn_marcato_whole_PP_G#4.opus
</region>
</group>

<group>
group_label=RR1
seq_length=4
seq_position=1

<region>
hivel=127
key=A#2
lovel=85
sample=Horn_staccato_FF_A#2_RR1.opus
</region>

<region>
hivel=127
key=A#3
lovel=85
sample=Horn_staccato_FF_A#3_RR1.opus
</region>

<region>
hivel=127
key=A#4
lovel=85
sample=Horn_staccato_FF_A#4_RR1.opus
</region>

<region>
hivel=127
key=A2
lovel=85
sample=Horn_staccato_FF_A2_RR1.opus
</region>

<region>
hivel=127
key=A3
lovel=85
sample=Horn_staccato_FF_A3_RR1.opus
</region>

<region>
hivel=127
key=A4
lovel=85
sample=Horn_staccato_FF_A4_RR1.opus
</region>

<region>
hivel=127
key=B2
lovel=85
sample=Horn_staccato_FF_B2_RR1.opus
</region>

<region>
hivel=127
key=B3
lovel=85
sample=Horn_staccato_FF_B3_RR1.opus
</region>

<region>
hivel=127
key=B4
lovel=85
sample=Horn_staccato_FF_B4_RR1.opus
</region>

<region>
hivel=127
key=C#3
lovel=85
sample=Horn_staccato_FF_C#3_RR1.opus
</region>

<region>
hivel=127
key=C#4
lovel=85
sample=Horn_staccato_FF_C#4_RR1.opus
</region>

<region>
hivel=127
key=C#5
lovel=85
sample=Horn_staccato_FF_C#5_RR1.opus
</region>

<region>
hivel=127
key=C3
lovel=85
sample=Horn_staccato_FF_C3_RR1.opus
</region>

<region>
hivel=127
key=C4
lovel=85
sample=Horn_staccato_FF_C4_RR1.opus
</region>

<region>
hivel=127
key=C5
lovel=85
sample=Horn_staccato_FF_C5_RR1.opus
</region>

<region>
hivel=127
key=D#3
lovel=85
sample=Horn_staccato_FF_D#3_RR1.opus
</region>

<region>
hivel=127
key=D#4
lovel=85
sample=Horn_staccato_FF_D#4_RR1.opus
</region>

<region>
hivel=127
key=D#5
lovel=85
sample=Horn_staccato_FF_D#5_RR1.opus
</region>

<region>
hivel=127
key=D3
lovel=85
sample=Horn_staccato_FF_D3_RR1.opus
</region>

<region>
hivel=127
key=D4
lovel=85
sample=Horn_staccato_FF_D4_RR1.opus
</region>

<region>
hivel=127
key=D5
lovel=85
sample=Horn_staccato_FF_D5_RR1.opus
</region>

<region>
hivel=127
key=E3
lovel=85
sample=Horn_staccato_FF_E3_RR1.opus
</region>

<region>
hivel=127
key=E4
lovel=85
sample=Horn_staccato_FF_E4_RR1.opus
</region>

<region>
hivel=127
key=E5
lovel=85
sample=Horn_staccato_FF_E5_RR1.opus
</region>

<region>
hivel=127
key=F#2
lovel=85
sample=Horn_staccato_FF_F#2_RR1.opus
</region>

<region>
hivel=127
key=F#3
lovel=85
sample=Horn_staccato_FF_F#3_RR1.opus
</region>

<region>
hivel=127
key=F#4
lovel=85
sample=Horn_staccato_FF_F#4_RR1.opus
</region>

<region>
hikey=F2
hivel=127
lokey=C2
lovel=85
pitch_keycenter=F2
sample=Horn_staccato_FF_F2_RR1.opus
</region>

<region>
hivel=127
key=F3
lovel=85
sample=Horn_staccato_FF_F3_RR1.opus
</region>

<region>
hivel=127
key=F4
lovel=85
sample=Horn_staccato_FF_F4_RR1.opus
</region>

<region>
hikey=A#5
hivel=127
lokey=F5
lovel=85
pitch_keycenter=F5
sample=Horn_staccato_FF_F5_RR1.opus
</region>

<region>
hivel=127
key=G#2
lovel=85
sample=Horn_staccato_FF_G#2_RR1.opus
</region>

<region>
hivel=127
key=G#3
lovel=85
sample=Horn_staccato_FF_G#3_RR1.opus
</region>

<region>
hivel=127
key=G#4
lovel=85
sample=Horn_staccato_FF_G#4_RR1.opus
</region>

<region>
hivel=127
key=G2
lovel=85
sample=Horn_staccato_FF_G2_RR1.opus
</region>

<region>
hivel=127
key=G3
lovel=85
sample=Horn_staccato_FF_G3_RR1.opus
</region>

<region>
hivel=127
key=G4
lovel=85
sample=Horn_staccato_FF_G4_RR1.opus
</region>

<region>
hivel=84
key=A#2
lovel=43
sample=Horn_staccato_MF_A#2_RR1.opus
</region>

<region>
hivel=84
key=A#3
lovel=43
sample=Horn_staccato_MF_A#3_RR1.opus
</region>

<region>
hivel=84
key=A#4
lovel=43
sample=Horn_staccato_MF_A#4_RR1.opus
</region>

<region>
hivel=84
key=A2
lovel=43
sample=Horn_staccato_MF_A2_RR1.opus
</region>

<region>
hivel=84
key=A3
lovel=43
sample=Horn_staccato_MF_A3_RR1.opus
</region>

<region>
hivel=84
key=A4
lovel=43
sample=Horn_staccato_MF_A4_RR1.opus
</region>

<region>
hivel=84
key=B2
lovel=43
sample=Horn_staccato_MF_B2_RR1.opus
</region>

<region>
hivel=84
key=B3
lovel=43
sample=Horn_staccato_MF_B3_RR1.opus
</region>

<region>
hivel=84
key=B4
lovel=43
sample=Horn_staccato_MF_B4_RR1.opus
</region>

<region>
hivel=84
key=C#3
lovel=43
sample=Horn_staccato_MF_C#3_RR1.opus
</region>

<region>
hivel=84
key=C#4
lovel=43
sample=Horn_staccato_MF_C#4_RR1.opus
</region>

<region>
hivel=84
key=C#5
lovel=43
sample=Horn_staccato_MF_C#5_RR1.opus
</region>

<region>
hivel=84
key=C3
lovel=43
sample=Horn_staccato_MF_C3_RR1.opus
</region>

<region>
hivel=84
key=C4
lovel=43
sample=Horn_staccato_MF_C4_RR1.opus
</region>

<region>
hivel=84
key=C5
lovel=43
sample=Horn_staccato_MF_C5_RR1.opus
</region>

<region>
hivel=84
key=D#3
lovel=43
sample=Horn_staccato_MF_D#3_RR1.opus
</region>

<region>
hivel=84
key=D#4
lovel=43
sample=Horn_staccato_MF_D#4_RR1.opus
</region>

<region>
hivel=84
key=D#5
lovel=43
sample=Horn_staccato_MF_D#5_RR1.opus
</region>

<region>
hivel=84
key=D3
lovel=43
sample=Horn_staccato_MF_D3_RR1.opus
</region>

<region>
hivel=84
key=D4
lovel=43
sample=Horn_staccato_MF_D4_RR1.opus
</region>

<region>
hivel=84
key=D5
lovel=43
sample=Horn_staccato_MF_D5_RR1.opus
</region>

<region>
hivel=84
key=E3
lovel=43
sample=Horn_staccato_MF_E3_RR1.opus
</region>

<region>
hivel=84
key=E4
lovel=43
sample=Horn_staccato_MF_E4_RR1.opus
</region>

<region>
hivel=84
key=E5
lovel=43
sample=Horn_staccato_MF_E5_RR1.opus
</region>

<region>
hivel=84
key=F#2
lovel=43
sample=Horn_staccato_MF_F#2_RR1.opus
</region>

<region>
hivel=84
key=F#3
lovel=43
sample=Horn_staccato_MF_F#3_RR1.opus
</region>

<region>
hivel=84
key=F#4
lovel=43
sample=Horn_staccato_MF_F#4_RR1.opus
</region>

<region>
hikey=F2
hivel=84
lokey=C2
lovel=43
pitch_keycenter=F2
sample=Horn_staccato_MF_F2_RR1.opus
</region>

<region>
hivel=84
key=F3
lovel=43
sample=Horn_staccato_MF_F3_RR1.opus
</region>

<region>
hivel=84
key=F4
lovel=43
sample=Horn_staccato_MF_F4_RR1.opus
</region>

<region>
hikey=A#5
hivel=84
lokey=F5
lovel=43
pitch_keycenter=F5
sample=Horn_staccato_MF_F5_RR1.opus
</region>

<region>
hivel=84
key=G#2
lovel=43
sample=Horn_staccato_MF_G#2_RR1.opus
</region>

<region>
hivel=84
key=G#3
lovel=43
sample=Horn_staccato_MF_G#3_RR1.opus
</region>

<region>
hivel=84
key=G#4
lovel=43
sample=Horn_staccato_MF_G#4_RR1.opus
</region>

<region>
hivel=84
key=G2
lovel=43
sample=Horn_staccato_MF_G2_RR1.opus
</region>

<region>
hivel=84
key=G3
lovel=43
sample=Horn_staccato_MF_G3_RR1.opus
</region>

<region>
hivel=84
key=G4
lovel=43
sample=Horn_staccato_MF_G4_RR1.opus
</region>

<region>
hivel=42
key=A#2
lovel=0
sample=Horn_staccato_PP_A#2_RR1.opus
</region>

<region>
hivel=42
key=A#3
lovel=0
sample=Horn_staccato_PP_A#3_RR1.opus
</region>

<region>
hivel=42
key=A#4
lovel=0
sample=Horn_staccato_PP_A#4_RR1.opus
</region>

<region>
hivel=42
key=A2
lovel=0
sample=Horn_staccato_PP_A2_RR1.opus
</region>

<region>
hivel=42
key=A3
lovel=0
sample=Horn_staccato_PP_A3_RR1.opus
</region>

<region>
hivel=42
key=A4
lovel=0
sample=Horn_staccato_PP_A4_RR1.opus
</region>

<region>
hivel=42
key=B2
lovel=0
sample=Horn_staccato_PP_B2_RR1.opus
</region>

<region>
hivel=42
key=B3
lovel=0
sample=Horn_staccato_PP_B3_RR1.opus
</region>

<region>
hivel=42
key=B4
lovel=0
sample=Horn_staccato_PP_B4_RR1.opus
</region>

<region>
hivel=42
key=C#3
lovel=0
sample=Horn_staccato_PP_C#3_RR1.opus
</region>

<region>
hivel=42
key=C#4
lovel=0
sample=Horn_staccato_PP_C#4_RR1.opus
</region>

<region>
hivel=42
key=C#5
lovel=0
sample=Horn_staccato_PP_C#5_RR1.opus
</region>

<region>
hivel=42
key=C3
lovel=0
sample=Horn_staccato_PP_C3_RR1.opus
</region>

<region>
hivel=42
key=C4
lovel=0
sample=Horn_staccato_PP_C4_RR1.opus
</region>

<region>
hivel=42
key=C5
lovel=0
sample=Horn_staccato_PP_C5_RR1.opus
</region>

<region>
hivel=42
key=D#3
lovel=0
sample=Horn_staccato_PP_D#3_RR1.opus
</region>

<region>
hivel=42
key=D#4
lovel=0
sample=Horn_staccato_PP_D#4_RR1.opus
</region>

<region>
hivel=42
key=D#5
lovel=0
sample=Horn_staccato_PP_D#5_RR1.opus
</region>

<region>
hivel=42
key=D3
lovel=0
sample=Horn_staccato_PP_D3_RR1.opus
</region>

<region>
hivel=42
key=D4
lovel=0
sample=Horn_staccato_PP_D4_RR1.opus
</region>

<region>
hivel=42
key=D5
lovel=0
sample=Horn_staccato_PP_D5_RR1.opus
</region>

<region>
hivel=42
key=E3
lovel=0
sample=Horn_staccato_PP_E3_RR1.opus
</region>

<region>
hivel=42
key=E4
lovel=0
sample=Horn_staccato_PP_E4_RR1.opus
</region>

<region>
hivel=42
key=E5
lovel=0
sample=Horn_staccato_PP_E5_RR1.opus
</region>

<region>
hivel=42
key=F#2
lovel=0
sample=Horn_staccato_PP_F#2_RR1.opus
</region>

<region>
hivel=42
key=F#3
lovel=0
sample=Horn_staccato_PP_F#3_RR1.opus
</region>

<region>
hivel=42
key=F#4
lovel=0
sample=Horn_staccato_PP_F#4_RR1.opus
</region>

<region>
hikey=F2
hivel=42
lokey=C2
lovel=0
pitch_keycenter=F2
sample=Horn_staccato_PP_F2_RR1.opus
</region>

<region>
hivel=42
key=F3
lovel=0
sample=Horn_staccato_PP_F3_RR1.opus
</region>

<region>
hivel=42
key=F4
lovel=0
sample=Horn_staccato_PP_F4_RR1.opus
</region>

<region>
hikey=A#5
hivel=42
lokey=F5
lovel=0
pitch_keycenter=F5
sample=Horn_staccato_PP_F5_RR1.opus
</region>

<region>
hivel=42
key=G#2
lovel=0
sample=Horn_staccato_PP_G#2_RR1.opus
</region>

<region>
hivel=42
key=G#3
lovel=0
sample=Horn_staccato_PP_G#3_RR1.opus
</region>

<region>
hivel=42
key=G#4
lovel=0
sample=Horn_staccato_PP_G#4_RR1.opus
</region>

<region>
hivel=42
key=G2
lovel=0
sample=Horn_staccato_PP_G2_RR1.opus
</region>

<region>
hivel=42
key=G3
lovel=0
sample=Horn_staccato_PP_G3_RR1.opus
</region>

<region>
hivel=42
key=G4
lovel=0
sample=Horn_staccato_PP_G4_RR1.opus
</region>
</group>

<group>
group_label=RR2
seq_length=4
seq_position=2

<region>
hivel=127
key=A#2
lovel=85
sample=Horn_staccato_FF_A#2_RR2.opus
</region>

<region>
hivel=127
key=A#3
lovel=85
sample=Horn_staccato_FF_A#3_RR2.opus
</region>

<region>
hivel=127
key=A#4
lovel=85
sample=Horn_staccato_FF_A#4_RR2.opus
</region>

<region>
hivel=127
key=A2
lovel=85
sample=Horn_staccato_FF_A2_RR2.opus
</region>

<region>
hivel=127
key=A3
lovel=85
sample=Horn_staccato_FF_A3_RR2.opus
</region>

<region>
hivel=127
key=A4
lovel=85
sample=Horn_staccato_FF_A4_RR2.opus
</region>

<region>
hivel=127
key=B2
lovel=85
sample=Horn_staccato_FF_B2_RR2.opus
</region>

<region>
hivel=127
key=B3
lovel=85
sample=Horn_staccato_FF_B3_RR2.opus
</region>

<region>
hivel=127
key=B4
lovel=85
sample=Horn_staccato_FF_B4_RR2.opus
</region>

<region>
hivel=127
key=C#3
lovel=85
sample=Horn_staccato_FF_C#3_RR2.opus
</region>

<region>
hivel=127
key=C#4
lovel=85
sample=Horn_staccato_FF_C#4_RR2.opus
</region>

<region>
hivel=127
key=C#5
lovel=85
sample=Horn_staccato_FF_C#5_RR2.opus
</region>

<region>
hivel=127
key=C3
lovel=85
sample=Horn_staccato_FF_C3_RR2.opus
</region>

<region>
hivel=127
key=C4
lovel=85
sample=Horn_staccato_FF_C4_RR2.opus
</region>

<region>
hivel=127
key=C5
lovel=85
sample=Horn_staccato_FF_C5_RR2.opus
</region>

<region>
hivel=127
key=D#3
lovel=85
sample=Horn_staccato_FF_D#3_RR2.opus
</region>

<region>
hivel=127
key=D#4
lovel=85
sample=Horn_staccato_FF_D#4_RR2.opus
</region>

<region>
hivel=127
key=D#5
lovel=85
sample=Horn_staccato_FF_D#5_RR2.opus
</region>

<region>
hivel=127
key=D3
lovel=85
sample=Horn_staccato_FF_D3_RR2.opus
</region>

<region>
hivel=127
key=D4
lovel=85
sample=Horn_staccato_FF_D4_RR2.opus
</region>

<region>
hivel=127
key=D5
lovel=85
sample=Horn_staccato_FF_D5_RR2.opus
</region>

<region>
hivel=127
key=E3
lovel=85
sample=Horn_staccato_FF_E3_RR2.opus
</region>

<region>
hivel=127
key=E4
lovel=85
sample=Horn_staccato_FF_E4_RR2.opus
</region>

<region>
hivel=127
key=E5
lovel=85
sample=Horn_staccato_FF_E5_RR2.opus
</region>

<region>
hivel=127
key=F#2
lovel=85
sample=Horn_staccato_FF_F#2_RR2.opus
</region>

<region>
hivel=127
key=F#3
lovel=85
sample=Horn_staccato_FF_F#3_RR2.opus
</region>

<region>
hivel=127
key=F#4
lovel=85
sample=Horn_staccato_FF_F#4_RR2.opus
</region>

<region>
hikey=F2
hivel=127
lokey=C2
lovel=85
pitch_keycenter=F2
sample=Horn_staccato_FF_F2_RR2.opus
</region>

<region>
hivel=127
key=F3
lovel=85
sample=Horn_staccato_FF_F3_RR2.opus
</region>

<region>
hivel=127
key=F4
lovel=85
sample=Horn_staccato_FF_F4_RR2.opus
</region>

<region>
hikey=A#5
hivel=127
lokey=F5
lovel=85
pitch_keycenter=F5
sample=Horn_staccato_FF_F5_RR2.opus
</region>

<region>
hivel=127
key=G#2
lovel=85
sample=Horn_staccato_FF_G#2_RR2.opus
</region>

<region>
hivel=127
key=G#3
lovel=85
sample=Horn_staccato_FF_G#3_RR2.opus
</region>

<region>
hivel=127
key=G#4
lovel=85
sample=Horn_staccato_FF_G#4_RR2.opus
</region>

<region>
hivel=127
key=G2
lovel=85
sample=Horn_staccato_FF_G2_RR2.opus
</region>

<region>
hivel=127
key=G3
lovel=85
sample=Horn_staccato_FF_G3_RR2.opus
</region>

<region>
hivel=127
key=G4
lovel=85
sample=Horn_staccato_FF_G4_RR2.opus
</region>

<region>
hivel=84
key=A#2
lovel=43
sample=Horn_staccato_MF_A#2_RR2.opus
</region>

<region>
hivel=84
key=A#3
lovel=43
sample=Horn_staccato_MF_A#3_RR2.opus
</region>

<region>
hivel=84
key=A#4
lovel=43
sample=Horn_staccato_MF_A#4_RR2.opus
</region>

<region>
hivel=84
key=A2
lovel=43
sample=Horn_staccato_MF_A2_RR2.opus
</region>

<region>
hivel=84
key=A3
lovel=43
sample=Horn_staccato_MF_A3_RR2.opus
</region>

<region>
hivel=84
key=A4
lovel=43
sample=Horn_staccato_MF_A4_RR2.opus
</region>

<region>
hivel=84
key=B2
lovel=43
sample=Horn_staccato_MF_B2_RR2.opus
</region>

<region>
hivel=84
key=B3
lovel=43
sample=Horn_staccato_MF_B3_RR2.opus
</region>

<region>
hivel=84
key=B4
lovel=43
sample=Horn_staccato_MF_B4_RR2.opus
</region>

<region>
hivel=84
key=C#3
lovel=43
sample=Horn_staccato_MF_C#3_RR2.opus
</region>

<region>
hivel=84
key=C#4
lovel=43
sample=Horn_staccato_MF_C#4_RR2.opus
</region>

<region>
hivel=84
key=C#5
lovel=43
sample=Horn_staccato_MF_C#5_RR2.opus
</region>

<region>
hivel=84
key=C3
lovel=43
sample=Horn_staccato_MF_C3_RR2.opus
</region>

<region>
hivel=84
key=C4
lovel=43
sample=Horn_staccato_MF_C4_RR2.opus
</region>

<region>
hivel=84
key=C5
lovel=43
sample=Horn_staccato_MF_C5_RR2.opus
</region>

<region>
hivel=84
key=D#3
lovel=43
sample=Horn_staccato_MF_D#3_RR2.opus
</region>

<region>
hivel=84
key=D#4
lovel=43
sample=Horn_staccato_MF_D#4_RR2.opus
</region>

<region>
hivel=84
key=D#5
lovel=43
sample=Horn_staccato_MF_D#5_RR2.opus
</region>

<region>
hivel=84
key=D3
lovel=43
sample=Horn_staccato_MF_D3_RR2.opus
</region>

<region>
hivel=84
key=D4
lovel=43
sample=Horn_staccato_MF_D4_RR2.opus
</region>

<region>
hivel=84
key=D5
lovel=43
sample=Horn_staccato_MF_D5_RR2.opus
</region>

<region>
hivel=84
key=E3
lovel=43
sample=Horn_staccato_MF_E3_RR2.opus
</region>

<region>
hivel=84
key=E4
lovel=43
sample=Horn_staccato_MF_E4_RR2.opus
</region>

<region>
hivel=84
key=E5
lovel=43
sample=Horn_staccato_MF_E5_RR2.opus
</region>

<region>
hivel=84
key=F#2
lovel=43
sample=Horn_staccato_MF_F#2_RR2.opus
</region>

<region>
hivel=84
key=F#3
lovel=43
sample=Horn_staccato_MF_F#3_RR2.opus
</region>

<region>
hivel=84
key=F#4
lovel=43
sample=Horn_staccato_MF_F#4_RR2.opus
</region>

<region>
hikey=F2
hivel=84
lokey=C2
lovel=43
pitch_keycenter=F2
sample=Horn_staccato_MF_F2_RR2.opus
</region>

<region>
hivel=84
key=F3
lovel=43
sample=Horn_staccato_MF_F3_RR2.opus
</region>

<region>
hivel=84
key=F4
lovel=43
sample=Horn_staccato_MF_F4_RR2.opus
</region>

<region>
hikey=A#5
hivel=84
lokey=F5
lovel=43
pitch_keycenter=F5
sample=Horn_staccato_MF_F5_RR2.opus
</region>

<region>
hivel=84
key=G#2
lovel=43
sample=Horn_staccato_MF_G#2_RR2.opus
</region>

<region>
hivel=84
key=G#3
lovel=43
sample=Horn_staccato_MF_G#3_RR2.opus
</region>

<region>
hivel=84
key=G#4
lovel=43
sample=Horn_staccato_MF_G#4_RR2.opus
</region>

<region>
hivel=84
key=G2
lovel=43
sample=Horn_staccato_MF_G2_RR2.opus
</region>

<region>
hivel=84
key=G3
lovel=43
sample=Horn_staccato_MF_G3_RR2.opus
</region>

<region>
hivel=84
key=G4
lovel=43
sample=Horn_staccato_MF_G4_RR2.opus
</region>

<region>
hivel=42
key=A#2
lovel=0
sample=Horn_staccato_PP_A#2_RR2.opus
</region>

<region>
hivel=42
key=A#3
lovel=0
sample=Horn_staccato_PP_A#3_RR2.opus
</region>

<region>
hivel=42
key=A#4
lovel=0
sample=Horn_staccato_PP_A#4_RR2.opus
</region>

<region>
hivel=42
key=A2
lovel=0
sample=Horn_staccato_PP_A2_RR2.opus
</region>

<region>
hivel=42
key=A3
lovel=0
sample=Horn_staccato_PP_A3_RR2.opus
</region>

<region>
hivel=42
key=A4
lovel=0
sample=Horn_staccato_PP_A4_RR2.opus
</region>

<region>
hivel=42
key=B2
lovel=0
sample=Horn_staccato_PP_B2_RR2.opus
</region>

<region>
hivel=42
key=B3
lovel=0
sample=Horn_staccato_PP_B3_RR2.opus
</region>

<region>
hivel=42
key=B4
lovel=0
sample=Horn_staccato_PP_B4_RR2.opus
</region>

<region>
hivel=42
key=C#3
lovel=0
sample=Horn_staccato_PP_C#3_RR2.opus
</region>

<region>
hivel=42
key=C#4
lovel=0
sample=Horn_staccato_PP_C#4_RR2.opus
</region>

<region>
hivel=42
key=C#5
lovel=0
sample=Horn_staccato_PP_C#5_RR2.opus
</region>

<region>
hivel=42
key=C3
lovel=0
sample=Horn_staccato_PP_C3_RR2.opus
</region>

<region>
hivel=42
key=C4
lovel=0
sample=Horn_staccato_PP_C4_RR2.opus
</region>

<region>
hivel=42
key=C5
lovel=0
sample=Horn_staccato_PP_C5_RR2.opus
</region>

<region>
hivel=42
key=D#3
lovel=0
sample=Horn_staccato_PP_D#3_RR2.opus
</region>

<region>
hivel=42
key=D#4
lovel=0
sample=Horn_staccato_PP_D#4_RR2.opus
</region>

<region>
hivel=42
key=D#5
lovel=0
sample=Horn_staccato_PP_D#5_RR2.opus
</region>

<region>
hivel=42
key=D3
lovel=0
sample=Horn_staccato_PP_D3_RR2.opus
</region>

<region>
hivel=42
key=D4
lovel=0
sample=Horn_staccato_PP_D4_RR2.opus
</region>

<region>
hivel=42
key=D5
lovel=0
sample=Horn_staccato_PP_D5_RR2.opus
</region>

<region>
hivel=42
key=E3
lovel=0
sample=Horn_staccato_PP_E3_RR2.opus
</region>

<region>
hivel=42
key=E4
lovel=0
sample=Horn_staccato_PP_E4_RR2.opus
</region>

<region>
hivel=42
key=E5
lovel=0
sample=Horn_staccato_PP_E5_RR2.opus
</region>

<region>
hivel=42
key=F#2
lovel=0
sample=Horn_staccato_PP_F#2_RR2.opus
</region>

<region>
hivel=42
key=F#3
lovel=0
sample=Horn_staccato_PP_F#3_RR2.opus
</region>

<region>
hivel=42
key=F#4
lovel=0
sample=Horn_staccato_PP_F#4_RR2.opus
</region>

<region>
hikey=F2
hivel=42
lokey=C2
lovel=0
pitch_keycenter=F2
sample=Horn_staccato_PP_F2_RR2.opus
</region>

<region>
hivel=42
key=F3
lovel=0
sample=Horn_staccato_PP_F3_RR2.opus
</region>

<region>
hivel=42
key=F4
lovel=0
sample=Horn_staccato_PP_F4_RR2.opus
</region>

<region>
hikey=A#5
hivel=42
lokey=F5
lovel=0
pitch_keycenter=F5
sample=Horn_staccato_PP_F5_RR2.opus
</region>

<region>
hivel=42
key=G#2
lovel=0
sample=Horn_staccato_PP_G#2_RR2.opus
</region>

<region>
hivel=42
key=G#3
lovel=0
sample=Horn_staccato_PP_G#3_RR2.opus
</region>

<region>
hivel=42
key=G#4
lovel=0
sample=Horn_staccato_PP_G#4_RR2.opus
</region>

<region>
hivel=42
key=G2
lovel=0
sample=Horn_staccato_PP_G2_RR2.opus
</region>

<region>
hivel=42
key=G3
lovel=0
sample=Horn_staccato_PP_G3_RR2.opus
</region>

<region>
hivel=42
key=G4
lovel=0
sample=Horn_staccato_PP_G4_RR2.opus
</region>
</group>

<group>
group_label=RR3
seq_length=4
seq_position=3

<region>
hivel=127
key=A#2
lovel=85
sample=Horn_staccato_FF_A#2_RR3.opus
</region>

<region>
hivel=127
key=A#3
lovel=85
sample=Horn_staccato_FF_A#3_RR3.opus
</region>

<region>
hivel=127
key=A#4
lovel=85
sample=Horn_staccato_FF_A#4_RR3.opus
</region>

<region>
hivel=127
key=A2
lovel=85
sample=Horn_staccato_FF_A2_RR3.opus
</region>

<region>
hivel=127
key=A3
lovel=85
sample=Horn_staccato_FF_A3_RR3.opus
</region>

<region>
hivel=127
key=A4
lovel=85
sample=Horn_staccato_FF_A4_RR3.opus
</region>

<region>
hivel=127
key=B2
lovel=85
sample=Horn_staccato_FF_B2_RR3.opus
</region>

<region>
hivel=127
key=B3
lovel=85
sample=Horn_staccato_FF_B3_RR3.opus
</region>

<region>
hivel=127
key=B4
lovel=85
sample=Horn_staccato_FF_B4_RR3.opus
</region>

<region>
hivel=127
key=C#3
lovel=85
sample=Horn_staccato_FF_C#3_RR3.opus
</region>

<region>
hivel=127
key=C#4
lovel=85
sample=Horn_staccato_FF_C#4_RR3.opus
</region>

<region>
hivel=127
key=C#5
lovel=85
sample=Horn_staccato_FF_C#5_RR3.opus
</region>

<region>
hivel=127
key=C3
lovel=85
sample=Horn_staccato_FF_C3_RR3.opus
</region>

<region>
hivel=127
key=C4
lovel=85
sample=Horn_staccato_FF_C4_RR3.opus
</region>

<region>
hivel=127
key=C5
lovel=85
sample=Horn_staccato_FF_C5_RR3.opus
</region>

<region>
hivel=127
key=D#3
lovel=85
sample=Horn_staccato_FF_D#3_RR3.opus
</region>

<region>
hivel=127
key=D#4
lovel=85
sample=Horn_staccato_FF_D#4_RR3.opus
</region>

<region>
hivel=127
key=D#5
lovel=85
sample=Horn_staccato_FF_D#5_RR3.opus
</region>

<region>
hivel=127
key=D3
lovel=85
sample=Horn_staccato_FF_D3_RR3.opus
</region>

<region>
hivel=127
key=D4
lovel=85
sample=Horn_staccato_FF_D4_RR3.opus
</region>

<region>
hivel=127
key=D5
lovel=85
sample=Horn_staccato_FF_D5_RR3.opus
</region>

<region>
hivel=127
key=E3
lovel=85
sample=Horn_staccato_FF_E3_RR3.opus
</region>

<region>
hivel=127
key=E4
lovel=85
sample=Horn_staccato_FF_E4_RR3.opus
</region>

<region>
hivel=127
key=E5
lovel=85
sample=Horn_staccato_FF_E5_RR3.opus
</region>

<region>
hivel=127
key=F#2
lovel=85
sample=Horn_staccato_FF_F#2_RR3.opus
</region>

<region>
hivel=127
key=F#3
lovel=85
sample=Horn_staccato_FF_F#3_RR3.opus
</region>

<region>
hivel=127
key=F#4
lovel=85
sample=Horn_staccato_FF_F#4_RR3.opus
</region>

<region>
hikey=F2
hivel=127
lokey=C2
lovel=85
pitch_keycenter=F2
sample=Horn_staccato_FF_F2_RR3.opus
</region>

<region>
hivel=127
key=F3
lovel=85
sample=Horn_staccato_FF_F3_RR3.opus
</region>

<region>
hivel=127
key=F4
lovel=85
sample=Horn_staccato_FF_F4_RR3.opus
</region>

<region>
hikey=A#5
hivel=127
lokey=F5
lovel=85
pitch_keycenter=F5
sample=Horn_staccato_FF_F5_RR3.opus
</region>

<region>
hivel=127
key=G#2
lovel=85
sample=Horn_staccato_FF_G#2_RR3.opus
</region>

<region>
hivel=127
key=G#3
lovel=85
sample=Horn_staccato_FF_G#3_RR3.opus
</region>

<region>
hivel=127
key=G#4
lovel=85
sample=Horn_staccato_FF_G#4_RR3.opus
</region>

<region>
hivel=127
key=G2
lovel=85
sample=Horn_staccato_FF_G2_RR3.opus
</region>

<region>
hivel=127
key=G3
lovel=85
sample=Horn_staccato_FF_G3_RR3.opus
</region>

<region>
hivel=127
key=G4
lovel=85
sample=Horn_staccato_FF_G4_RR3.opus
</region>

<region>
hivel=84
key=A#2
lovel=43
sample=Horn_staccato_MF_A#2_RR3.opus
</region>

<region>
hivel=84
key=A#3
lovel=43
sample=Horn_staccato_MF_A#3_RR3.opus
</region>

<region>
hivel=84
key=A#4
lovel=43
sample=Horn_staccato_MF_A#4_RR3.opus
</region>

<region>
hivel=84
key=A2
lovel=43
sample=Horn_staccato_MF_A2_RR3.opus
</region>

<region>
hivel=84
key=A3
lovel=43
sample=Horn_staccato_MF_A3_RR3.opus
</region>

<region>
hivel=84
key=A4
lovel=43
sample=Horn_staccato_MF_A4_RR3.opus
</region>

<region>
hivel=84
key=B2
lovel=43
sample=Horn_staccato_MF_B2_RR3.opus
</region>

<region>
hivel=84
key=B3
lovel=43
sample=Horn_staccato_MF_B3_RR3.opus
</region>

<region>
hivel=84
key=B4
lovel=43
sample=Horn_staccato_MF_B4_RR3.opus
</region>

<region>
hivel=84
key=C#3
lovel=43
sample=Horn_staccato_MF_C#3_RR3.opus
</region>

<region>
hivel=84
key=C#4
lovel=43
sample=Horn_staccato_MF_C#4_RR3.opus
</region>

<region>
hivel=84
key=C#5
lovel=43
sample=Horn_staccato_MF_C#5_RR3.opus
</region>

<region>
hivel=84
key=C3
lovel=43
sample=Horn_staccato_MF_C3_RR3.opus
</region>

<region>
hivel=84
key=C4
lovel=43
sample=Horn_staccato_MF_C4_RR3.opus
</region>

<region>
hivel=84
key=C5
lovel=43
sample=Horn_staccato_MF_C5_RR3.opus
</region>

<region>
hivel=84
key=D#3
lovel=43
sample=Horn_staccato_MF_D#3_RR3.opus
</region>

<region>
hivel=84
key=D#4
lovel=43
sample=Horn_staccato_MF_D#4_RR3.opus
</region>

<region>
hivel=84
key=D#5
lovel=43
sample=Horn_staccato_MF_D#5_RR3.opus
</region>

<region>
hivel=84
key=D3
lovel=43
sample=Horn_staccato_MF_D3_RR3.opus
</region>

<region>
hivel=84
key=D4
lovel=43
sample=Horn_staccato_MF_D4_RR3.opus
</region>

<region>
hivel=84
key=D5
lovel=43
sample=Horn_staccato_MF_D5_RR3.opus
</region>

<region>
hivel=84
key=E3
lovel=43
sample=Horn_staccato_MF_E3_RR3.opus
</region>

<region>
hivel=84
key=E4
lovel=43
sample=Horn_staccato_MF_E4_RR3.opus
</region>

<region>
hivel=84
key=E5
lovel=43
sample=Horn_staccato_MF_E5_RR3.opus
</region>

<region>
hivel=84
key=F#2
lovel=43
sample=Horn_staccato_MF_F#2_RR3.opus
</region>

<region>
hivel=84
key=F#3
lovel=43
sample=Horn_staccato_MF_F#3_RR3.opus
</region>

<region>
hivel=84
key=F#4
lovel=43
sample=Horn_staccato_MF_F#4_RR3.opus
</region>

<region>
hikey=F2
hivel=84
lokey=C2
lovel=43
pitch_keycenter=F2
sample=Horn_staccato_MF_F2_RR3.opus
</region>

<region>
hivel=84
key=F3
lovel=43
sample=Horn_staccato_MF_F3_RR3.opus
</region>

<region>
hivel=84
key=F4
lovel=43
sample=Horn_staccato_MF_F4_RR3.opus
</region>

<region>
hikey=A#5
hivel=84
lokey=F5
lovel=43
pitch_keycenter=F5
sample=Horn_staccato_MF_F5_RR3.opus
</region>

<region>
hivel=84
key=G#2
lovel=43
sample=Horn_staccato_MF_G#2_RR3.opus
</region>

<region>
hivel=84
key=G#3
lovel=43
sample=Horn_staccato_MF_G#3_RR3.opus
</region>

<region>
hivel=84
key=G#4
lovel=43
sample=Horn_staccato_MF_G#4_RR3.opus
</region>

<region>
hivel=84
key=G2
lovel=43
sample=Horn_staccato_MF_G2_RR3.opus
</region>

<region>
hivel=84
key=G3
lovel=43
sample=Horn_staccato_MF_G3_RR3.opus
</region>

<region>
hivel=84
key=G4
lovel=43
sample=Horn_staccato_MF_G4_RR3.opus
</region>

<region>
hivel=42
key=A#2
lovel=0
sample=Horn_staccato_PP_A#2_RR3.opus
</region>

<region>
hivel=42
key=A#3
lovel=0
sample=Horn_staccato_PP_A#3_RR3.opus
</region>

<region>
hivel=42
key=A#4
lovel=0
sample=Horn_staccato_PP_A#4_RR3.opus
</region>

<region>
hivel=42
key=A2
lovel=0
sample=Horn_staccato_PP_A2_RR3.opus
</region>

<region>
hivel=42
key=A3
lovel=0
sample=Horn_staccato_PP_A3_RR3.opus
</region>

<region>
hivel=42
key=A4
lovel=0
sample=Horn_staccato_PP_A4_RR3.opus
</region>

<region>
hivel=42
key=B2
lovel=0
sample=Horn_staccato_PP_B2_RR3.opus
</region>

<region>
hivel=42
key=B3
lovel=0
sample=Horn_staccato_PP_B3_RR3.opus
</region>

<region>
hivel=42
key=B4
lovel=0
sample=Horn_staccato_PP_B4_RR3.opus
</region>

<region>
hivel=42
key=C#3
lovel=0
sample=Horn_staccato_PP_C#3_RR3.opus
</region>

<region>
hivel=42
key=C#4
lovel=0
sample=Horn_staccato_PP_C#4_RR3.opus
</region>

<region>
hivel=42
key=C#5
lovel=0
sample=Horn_staccato_PP_C#5_RR3.opus
</region>

<region>
hivel=42
key=C3
lovel=0
sample=Horn_staccato_PP_C3_RR3.opus
</region>

<region>
hivel=42
key=C4
lovel=0
sample=Horn_staccato_PP_C4_RR3.opus
</region>

<region>
hivel=42
key=C5
lovel=0
sample=Horn_staccato_PP_C5_RR3.opus
</region>

<region>
hivel=42
key=D#3
lovel=0
sample=Horn_staccato_PP_D#3_RR3.opus
</region>

<region>
hivel=42
key=D#4
lovel=0
sample=Horn_staccato_PP_D#4_RR3.opus
</region>

<region>
hivel=42
key=D#5
lovel=0
sample=Horn_staccato_PP_D#5_RR3.opus
</region>

<region>
hivel=42
key=D3
lovel=0
sample=Horn_staccato_PP_D3_RR3.opus
</region>

<region>
hivel=42
key=D4
lovel=0
sample=Horn_staccato_PP_D4_RR3.opus
</region>

<region>
hivel=42
key=D5
lovel=0
sample=Horn_staccato_PP_D5_RR3.opus
</region>

<region>
hivel=42
key=E3
lovel=0
sample=Horn_staccato_PP_E3_RR3.opus
</region>

<region>
hivel=42
key=E4
lovel=0
sample=Horn_staccato_PP_E4_RR3.opus
</region>

<region>
hivel=42
key=E5
lovel=0
sample=Horn_staccato_PP_E5_RR3.opus
</region>

<region>
hivel=42
key=F#2
lovel=0
sample=Horn_staccato_PP_F#2_RR3.opus
</region>

<region>
hivel=42
key=F#3
lovel=0
sample=Horn_staccato_PP_F#3_RR3.opus
</region>

<region>
hivel=42
key=F#4
lovel=0
sample=Horn_staccato_PP_F#4_RR3.opus
</region>

<region>
hikey=F2
hivel=42
lokey=C2
lovel=0
pitch_keycenter=F2
sample=Horn_staccato_PP_F2_RR3.opus
</region>

<region>
hivel=42
key=F3
lovel=0
sample=Horn_staccato_PP_F3_RR3.opus
</region>

<region>
hivel=42
key=F4
lovel=0
sample=Horn_staccato_PP_F4_RR3.opus
</region>

<region>
hikey=A#5
hivel=42
lokey=F5
lovel=0
pitch_keycenter=F5
sample=Horn_staccato_PP_F5_RR3.opus
</region>

<region>
hivel=42
key=G#2
lovel=0
sample=Horn_staccato_PP_G#2_RR3.opus
</region>

<region>
hivel=42
key=G#3
lovel=0
sample=Horn_staccato_PP_G#3_RR3.opus
</region>

<region>
hivel=42
key=G#4
lovel=0
sample=Horn_staccato_PP_G#4_RR3.opus
</region>

<region>
hivel=42
key=G2
lovel=0
sample=Horn_staccato_PP_G2_RR3.opus
</region>

<region>
hivel=42
key=G3
lovel=0
sample=Horn_staccato_PP_G3_RR3.opus
</region>

<region>
hivel=42
key=G4
lovel=0
sample=Horn_staccato_PP_G4_RR3.opus
</region>
</group>

<group>
group_label=RR4
seq_length=4
seq_position=4

<region>
hivel=127
key=A#2
lovel=85
sample=Horn_staccato_FF_A#2_RR4.opus
</region>

<region>
hivel=127
key=A#3
lovel=85
sample=Horn_staccato_FF_A#3_RR4.opus
</region>

<region>
hivel=127
key=A#4
lovel=85
sample=Horn_staccato_FF_A#4_RR4.opus
</region>

<region>
hivel=127
key=A2
lovel=85
sample=Horn_staccato_FF_A2_RR4.opus
</region>

<region>
hivel=127
key=A3
lovel=85
sample=Horn_staccato_FF_A3_RR4.opus
</region>

<region>
hivel=127
key=A4
lovel=85
sample=Horn_staccato_FF_A4_RR4.opus
</region>

<region>
hivel=127
key=B2
lovel=85
sample=Horn_staccato_FF_B2_RR4.opus
</region>

<region>
hivel=127
key=B3
lovel=85
sample=Horn_staccato_FF_B3_RR4.opus
</region>

<region>
hivel=127
key=B4
lovel=85
sample=Horn_staccato_FF_B4_RR4.opus
</region>

<region>
hivel=127
key=C#3
lovel=85
sample=Horn_staccato_FF_C#3_RR4.opus
</region>

<region>
hivel=127
key=C#4
lovel=85
sample=Horn_staccato_FF_C#4_RR4.opus
</region>

<region>
hivel=127
key=C#5
lovel=85
sample=Horn_staccato_FF_C#5_RR4.opus
</region>

<region>
hivel=127
key=C3
lovel=85
sample=Horn_staccato_FF_C3_RR4.opus
</region>

<region>
hivel=127
key=C4
lovel=85
sample=Horn_staccato_FF_C4_RR4.opus
</region>

<region>
hivel=127
key=C5
lovel=85
sample=Horn_staccato_FF_C5_RR4.opus
</region>

<region>
hivel=127
key=D#3
lovel=85
sample=Horn_staccato_FF_D#3_RR4.opus
</region>

<region>
hivel=127
key=D#4
lovel=85
sample=Horn_staccato_FF_D#4_RR4.opus
</region>

<region>
hivel=127
key=D#5
lovel=85
sample=Horn_staccato_FF_D#5_RR4.opus
</region>

<region>
hivel=127
key=D3
lovel=85
sample=Horn_staccato_FF_D3_RR4.opus
</region>

<region>
hivel=127
key=D4
lovel=85
sample=Horn_staccato_FF_D4_RR4.opus
</region>

<region>
hivel=127
key=D5
lovel=85
sample=Horn_staccato_FF_D5_RR4.opus
</region>

<region>
hivel=127
key=E3
lovel=85
sample=Horn_staccato_FF_E3_RR4.opus
</region>

<region>
hivel=127
key=E4
lovel=85
sample=Horn_staccato_FF_E4_RR4.opus
</region>

<region>
hivel=127
key=E5
lovel=85
sample=Horn_staccato_FF_E5_RR4.opus
</region>

<region>
hivel=127
key=F#2
lovel=85
sample=Horn_staccato_FF_F#2_RR4.opus
</region>

<region>
hivel=127
key=F#3
lovel=85
sample=Horn_staccato_FF_F#3_RR4.opus
</region>

<region>
hivel=127
key=F#4
lovel=85
sample=Horn_staccato_FF_F#4_RR4.opus
</region>

<region>
hikey=F2
hivel=127
lokey=C2
lovel=85
pitch_keycenter=F2
sample=Horn_staccato_FF_F2_RR4.opus
</region>

<region>
hivel=127
key=F3
lovel=85
sample=Horn_staccato_FF_F3_RR4.opus
</region>

<region>
hivel=127
key=F4
lovel=85
sample=Horn_staccato_FF_F4_RR4.opus
</region>

<region>
hikey=A#5
hivel=127
lokey=F5
lovel=85
pitch_keycenter=F5
sample=Horn_staccato_FF_F5_RR4.opus
</region>

<region>
hivel=127
key=G#2
lovel=85
sample=Horn_staccato_FF_G#2_RR4.opus
</region>

<region>
hivel=127
key=G#3
lovel=85
sample=Horn_staccato_FF_G#3_RR4.opus
</region>

<region>
hivel=127
key=G#4
lovel=85
sample=Horn_staccato_FF_G#4_RR4.opus
</region>

<region>
hivel=127
key=G2
lovel=85
sample=Horn_staccato_FF_G2_RR4.opus
</region>

<region>
hivel=127
key=G3
lovel=85
sample=Horn_staccato_FF_G3_RR4.opus
</region>

<region>
hivel=127
key=G4
lovel=85
sample=Horn_staccato_FF_G4_RR4.opus
</region>

<region>
hivel=84
key=A#2
lovel=43
sample=Horn_staccato_MF_A#2_RR4.opus
</region>

<region>
hivel=84
key=A#3
lovel=43
sample=Horn_staccato_MF_A#3_RR4.opus
</region>

<region>
hivel=84
key=A#4
lovel=43
sample=Horn_staccato_MF_A#4_RR4.opus
</region>

<region>
hivel=84
key=A2
lovel=43
sample=Horn_staccato_MF_A2_RR4.opus
</region>

<region>
hivel=84
key=A3
lovel=43
sample=Horn_staccato_MF_A3_RR4.opus
</region>

<region>
hivel=84
key=A4
lovel=43
sample=Horn_staccato_MF_A4_RR4.opus
</region>

<region>
hivel=84
key=B2
lovel=43
sample=Horn_staccato_MF_B2_RR4.opus
</region>

<region>
hivel=84
key=B3
lovel=43
sample=Horn_staccato_MF_B3_RR4.opus
</region>

<region>
hivel=84
key=B4
lovel=43
sample=Horn_staccato_MF_B4_RR4.opus
</region>

<region>
hivel=84
key=C#3
lovel=43
sample=Horn_staccato_MF_C#3_RR4.opus
</region>

<region>
hivel=84
key=C#4
lovel=43
sample=Horn_staccato_MF_C#4_RR4.opus
</region>

<region>
hivel=84
key=C#5
lovel=43
sample=Horn_staccato_MF_C#5_RR4.opus
</region>

<region>
hivel=84
key=C3
lovel=43
sample=Horn_staccato_MF_C3_RR4.opus
</region>

<region>
hivel=84
key=C4
lovel=43
sample=Horn_staccato_MF_C4_RR4.opus
</region>

<region>
hivel=84
key=C5
lovel=43
sample=Horn_staccato_MF_C5_RR4.opus
</region>

<region>
hivel=84
key=D#3
lovel=43
sample=Horn_staccato_MF_D#3_RR4.opus
</region>

<region>
hivel=84
key=D#4
lovel=43
sample=Horn_staccato_MF_D#4_RR4.opus
</region>

<region>
hivel=84
key=D#5
lovel=43
sample=Horn_staccato_MF_D#5_RR4.opus
</region>

<region>
hivel=84
key=D3
lovel=43
sample=Horn_staccato_MF_D3_RR4.opus
</region>

<region>
hivel=84
key=D4
lovel=43
sample=Horn_staccato_MF_D4_RR4.opus
</region>

<region>
hivel=84
key=D5
lovel=43
sample=Horn_staccato_MF_D5_RR4.opus
</region>

<region>
hivel=84
key=E3
lovel=43
sample=Horn_staccato_MF_E3_RR4.opus
</region>

<region>
hivel=84
key=E4
lovel=43
sample=Horn_staccato_MF_E4_RR4.opus
</region>

<region>
hivel=84
key=E5
lovel=43
sample=Horn_staccato_MF_E5_RR4.opus
</region>

<region>
hivel=84
key=F#2
lovel=43
sample=Horn_staccato_MF_F#2_RR4.opus
</region>

<region>
hivel=84
key=F#3
lovel=43
sample=Horn_staccato_MF_F#3_RR4.opus
</region>

<region>
hivel=84
key=F#4
lovel=43
sample=Horn_staccato_MF_F#4_RR4.opus
</region>

<region>
hikey=F2
hivel=84
lokey=C2
lovel=43
pitch_keycenter=F2
sample=Horn_staccato_MF_F2_RR4.opus
</region>

<region>
hivel=84
key=F3
lovel=43
sample=Horn_staccato_MF_F3_RR4.opus
</region>

<region>
hivel=84
key=F4
lovel=43
sample=Horn_staccato_MF_F4_RR4.opus
</region>

<region>
hikey=A#5
hivel=84
lokey=F5
lovel=43
pitch_keycenter=F5
sample=Horn_staccato_MF_F5_RR4.opus
</region>

<region>
hivel=84
key=G#2
lovel=43
sample=Horn_staccato_MF_G#2_RR4.opus
</region>

<region>
hivel=84
key=G#3
lovel=43
sample=Horn_staccato_MF_G#3_RR4.opus
</region>

<region>
hivel=84
key=G#4
lovel=43
sample=Horn_staccato_MF_G#4_RR4.opus
</region>

<region>
hivel=84
key=G2
lovel=43
sample=Horn_staccato_MF_G2_RR4.opus
</region>

<region>
hivel=84
key=G3
lovel=43
sample=Horn_staccato_MF_G3_RR4.opus
</region>

<region>
hivel=84
key=G4
lovel=43
sample=Horn_staccato_MF_G4_RR4.opus
</region>

<region>
hivel=42
key=A#2
lovel=0
sample=Horn_staccato_PP_A#2_RR4.opus
</region>

<region>
hivel=42
key=A#3
lovel=0
sample=Horn_staccato_PP_A#3_RR4.opus
</region>

<region>
hivel=42
key=A#4
lovel=0
sample=Horn_staccato_PP_A#4_RR4.opus
</region>

<region>
hivel=42
key=A2
lovel=0
sample=Horn_staccato_PP_A2_RR4.opus
</region>

<region>
hivel=42
key=A3
lovel=0
sample=Horn_staccato_PP_A3_RR4.opus
</region>

<region>
hivel=42
key=A4
lovel=0
sample=Horn_staccato_PP_A4_RR4.opus
</region>

<region>
hivel=42
key=B2
lovel=0
sample=Horn_staccato_PP_B2_RR4.opus
</region>

<region>
hivel=42
key=B3
lovel=0
sample=Horn_staccato_PP_B3_RR4.opus
</region>

<region>
hivel=42
key=B4
lovel=0
sample=Horn_staccato_PP_B4_RR4.opus
</region>

<region>
hivel=42
key=C#3
lovel=0
sample=Horn_staccato_PP_C#3_RR4.opus
</region>

<region>
hivel=42
key=C#4
lovel=0
sample=Horn_staccato_PP_C#4_RR4.opus
</region>

<region>
hivel=42
key=C#5
lovel=0
sample=Horn_staccato_PP_C#5_RR4.opus
</region>

<region>
hivel=42
key=C3
lovel=0
sample=Horn_staccato_PP_C3_RR4.opus
</region>

<region>
hivel=42
key=C4
lovel=0
sample=Horn_staccato_PP_C4_RR4.opus
</region>

<region>
hivel=42
key=C5
lovel=0
sample=Horn_staccato_PP_C5_RR4.opus
</region>

<region>
hivel=42
key=D#3
lovel=0
sample=Horn_staccato_PP_D#3_RR4.opus
</region>

<region>
hivel=42
key=D#4
lovel=0
sample=Horn_staccato_PP_D#4_RR4.opus
</region>

<region>
hivel=42
key=D#5
lovel=0
sample=Horn_staccato_PP_D#5_RR4.opus
</region>

<region>
hivel=42
key=D3
lovel=0
sample=Horn_staccato_PP_D3_RR4.opus
</region>

<region>
hivel=42
key=D4
lovel=0
sample=Horn_staccato_PP_D4_RR4.opus
</region>

<region>
hivel=42
key=D5
lovel=0
sample=Horn_staccato_PP_D5_RR4.opus
</region>

<region>
hivel=42
key=E3
lovel=0
sample=Horn_staccato_PP_E3_RR4.opus
</region>

<region>
hivel=42
key=E4
lovel=0
sample=Horn_staccato_PP_E4_RR4.opus
</region>

<region>
hivel=42
key=E5
lovel=0
sample=Horn_staccato_PP_E5_RR4.opus
</region>

<region>
hivel=42
key=F#2
lovel=0
sample=Horn_staccato_PP_F#2_RR4.opus
</region>

<region>
hivel=42
key=F#3
lovel=0
sample=Horn_staccato_PP_F#3_RR4.opus
</region>

<region>
hivel=42
key=F#4
lovel=0
sample=Horn_staccato_PP_F#4_RR4.opus
</region>

<region>
hikey=F2
hivel=42
lokey=C2
lovel=0
pitch_keycenter=F2
sample=Horn_staccato_PP_F2_RR4.opus
</region>

<region>
hivel=42
key=F3
lovel=0
sample=Horn_staccato_PP_F3_RR4.opus
</region>

<region>
hivel=42
key=F4
lovel=0
sample=Horn_staccato_PP_F4_RR4.opus
</region>

<region>
hikey=A#5
hivel=42
lokey=F5
lovel=0
pitch_keycenter=F5
sample=Horn_staccato_PP_F5_RR4.opus
</region>

<region>
hivel=42
key=G#2
lovel=0
sample=Horn_staccato_PP_G#2_RR4.opus
</region>

<region>
hivel=42
key=G#3
lovel=0
sample=Horn_staccato_PP_G#3_RR4.opus
</region>

<region>
hivel=42
key=G#4
lovel=0
sample=Horn_staccato_PP_G#4_RR4.opus
</region>

<region>
hivel=42
key=G2
lovel=0
sample=Horn_staccato_PP_G2_RR4.opus
</region>

<region>
hivel=42
key=G3
lovel=0
sample=Horn_staccato_PP_G3_RR4.opus
</region>

<region>
hivel=42
key=G4
lovel=0
sample=Horn_staccato_PP_G4_RR4.opus
</region>
</group>

<group>
ampeg_attack=1.5
ampeg_release=0.45
group_label=PP
lpc_hicc1=42
lpc_locc1=0

<region>
hivel=127
key=A#2
loop_end=172884
loop_mode=loop_continuous
loop_start=51744
loop_xfade=16778
lovel=0
lpc=GmvlQjU3dMOZnd9CqDdpQczeEEI2ksLBsbaxwCm1C8AHxgw+oJsMwD7RcMDXxx5AK981QJ9nwz94aGi/+VMov3eI4r8OfVJAxqE0v1hyLMAtbTE/raBKvx7Uj0C4mC3A
lpc_rms=-48.29
release_start=196600
release_xfade=7621
sample=Horn_sustain_PP_A#2.opus
tune=+8
</region>

<region>
hivel=127
key=A#3
loop_end=167743
loop_mode=loop_continuous
loop_start=50205
loop_xfade=16279
lovel=0
lpc=5+iQQ2iELcSUJtpDIsqQweC7hkJpxKbC9L+GQZZvOcHMbpjB+7lAwejy0UHVgc5BaiOywBZrosFqBQ3BYuiTQJL6UUH/td3A3K6WwDKypEBREa9ANYjIwGJie8AdrZFA
lpc_rms=-38.35
release_start=187334
release_xfade=7261
sample=Horn_sustain_PP_A#3.opus
tune=-5
</region>

<region>
hivel=127
key=A#4
loop_end=165220
loop_mode=loop_continuous
loop_start=49450
loop_xfade=16034
lovel=0
lpc=4KdNRJ6J78SU15FE5FJPQRhtPkPIZonD2X3NwDwriECjkTXA23t0wp1QI0KlbqNCyJXpPniiIMLpbGzCcmEMQuXtk0K5/8TAXeinwmkQLUG1e5VBV1/YQTaiV8INNh5C
lpc_rms=-29.59
release_start=185623
release_xfade=7195
sample=Horn_sustain_PP_A#4.opus
tune=-8
</region>

<region>
hivel=127
key=A2
loop_end=175970
loop_mode=loop_continuous
loop_start=52668
loop_xfade=17077
lovel=0
lpc=+14lQwBEqcMi/+ZCsCcwQjhulEJi3a3BoiexwY+43MFafzvAeeQwQK+vHUHkB7o/CIqSPwIz2T/JhZm+4S5pPyAQUMCgtPq/qr8mv2cyuT+qE5k/+NlpPvqEWb9tzuY+
lpc_rms=-46.02
release_start=186256
release_xfade=7220
sample=Horn_sustain_PP_A2.opus
tune=+2
</region>

<region>
hivel=127
key=A3
loop_end=165289
loop_mode=loop_continuous
loop_start=49471
loop_xfade=16041
lovel=0
lpc=aBmtQ35hV8RINBtEPz3owqUT1kIRV+3Cu5aSQWmxC0HrXWtBhlwwwjrF3EDYPhlC0xtUwIDRNEHZD7XB8dIXwl1ZIkGnVBJCjngGwUgTlcG1fLXABH4XQkOMisGHYA7A
lpc_rms=-35.66
release_start=185771
release_xfade=7201
sample=Horn_sustain_PP_A3.opus
tune=+3
</region>

<region>
hivel=127
key=A4
loop_end=167341
loop_mode=loop_continuous
loop_start=50085
loop_xfade=16240
lovel=0
lpc=INp7Q9ldKsSeaRVEYnU/w6lm7UIzZv7CLXgVQlQ2CsFb1RrBOOHYQBEgJkFUsZpA1EAjQFS8h8FPoOBAuZGywPdBMEE+mTNB9UfqwVWA/kBisZ5BI6J4wQu3NcGCU1xB
lpc_rms=-36.29
release_start=179708
release_xfade=6966
sample=Horn_sustain_PP_A4.opus
tune=-3
</region>

<region>
hivel=127
key=B2
loop_end=172313
loop_mode=loop_continuous
loop_start=51573
loop_xfade=16722
lovel=0
lpc=E0IQQwS+ksNpXORCbDjyQZxBS0I92ffBVq55wREGF8EPZMlAkL8LQNt0VkDF4/6/sPjxPncmBUBKqrM/x7kvv/Z+ib+ghDU+wymTv1SdVcDfGBK/4PshQF03s789Wg1A
lpc_rms=-47.09
release_start=196953
release_xfade=7634
sample=Horn_sustain_PP_B2.opus
tune=+12
</region>

<region>
hivel=127
key=B3
loop_end=168252
loop_mode=loop_continuous
loop_start=50358
loop_xfade=16328
lovel=0
lpc=gVuTQ0nWL8Sv/dtDwexewm+0BUPMLbTC+o46wan/4j5zhITBI1ztwORgPEDIqmhBI/DKQHb3isFtxbA/nLGsQcJyV8Dg6UXB848pQA0ehkCQZNrA0KoAQfdVhcH/TzZB
lpc_rms=-37.96
release_start=183717
release_xfade=7121
sample=Horn_sustain_PP_B3.opus
tune=+15
</region>

<region>
hivel=127
key=B4
loop_end=174914
loop_mode=loop_continuous
loop_start=52351
loop_xfade=16975
lovel=0
lpc=90jFQ9JFh8SXa2BEIZz0wu3ifkIAp0bDx/D5wEUyiMDKj4BCKZsZQgMUz8AXt+3BqWupwSAQcMFE6xJCmmr/QQ7ihMFWsd7BL5zCwaDVokFGxcZB1kuNQpczEcPtG4ZC
lpc_rms=-33.69
release_start=185981
release_xfade=7209
sample=Horn_sustain_PP_B4.opus
tune=-27
</region>

<region>
hivel=127
key=C#3
loop_end=174197
loop_mode=loop_continuous
loop_start=52137
loop_xfade=16905
lovel=0
lpc=3642Q0Hf2MNeoHlDGH6rQdYBU0IyEIbCi6CBwfuT1b8MiUVBuOwEv0884T/byhe/LWG2v8wKwLzfC88/l8IfPoS74j/TCxU/1Z90wO6uRsA+rLw/Y/XbP/SLP0BzQhDA
lpc_rms=-42.93
release_start=193380
release_xfade=7496
sample=Horn_sustain_PP_C#3.opus
tune=+7
</region>

<region>
hivel=127
key=C#4
loop_end=164948
loop_mode=loop_continuous
loop_start=49369
loop_xfade=16008
lovel=0
lpc=CusoQwW93sPkuLFDepeEwmMiIELMEpfC1BeIQUwMgsBWnlJBqZA4QcDW2cAK4sHBIh7bQC6wREEQ6VdBUsh0wYniX8H3x/lADJZTQYttKT8KoNjAOek9wb0wRUGaEOu/
lpc_rms=-41.23
release_start=179526
release_xfade=6959
sample=Horn_sustain_PP_C#4.opus
tune=-9
</region>

<region>
hivel=127
key=C#5
loop_end=164412
loop_mode=loop_continuous
loop_start=49208
loop_xfade=15956
lovel=0
lpc=GYWmQ9SbY8Qau1VEDNl2w/uksUFAfvHC8bF1QiOy/EEIzH1BjJQBwvKiUcFOjDnBy92WQRdzcEK2IB3C+gdjwm+mIkKzEURAoTVPQXuAVUHYb3nBzUOfPyVHQ8JiRjlC
lpc_rms=-34.39
release_start=199722
release_xfade=7742
sample=Horn_sustain_PP_C#5.opus
tune=-30
</region>

<region>
hivel=127
key=C3
loop_end=173984
loop_mode=loop_continuous
loop_start=52073
loop_xfade=16885
lovel=0
lpc=y4L+QqhfjcOkqAhDy0bHQYWaIELkcQ7CBWwDwRGB7sCLrndAGh8av+3CjL8v9n8/trMZP/AE4D/rfdG+hQj/P/Wqoz8Rnse9wQOWwBlAXT92wHU/wNxYQBte9sCQvI9A
lpc_rms=-47.08
release_start=199123
release_xfade=7718
sample=Horn_sustain_PP_C3.opus
tune=+2
</region>

<region>
hikey=C4
hivel=127
lokey=C4
loop_end=174833
loop_mode=loop_continuous
loop_start=52327
loop_xfade=16967
lovel=0
lpc=LJgBQ+GNjsNuHgtDhoqUQY7NHEJNAA7CF8MpwHeQ4L4l94VA97skwZQGu8Dfb9JAH9WIQOCvsr64yIXAjmUdP5Vmb0DosjlAAA4Sv6IbR8CV6xbA8/h+QMFy2cA4SZ5A
lpc_rms=-47.04
release_start=199497
release_xfade=7733
sample=Horn_sustain_PP_C4.opus
tune=+1
</region>

<region>
hivel=127
key=C5
loop_end=171788
loop_mode=loop_continuous
loop_start=51416
loop_xfade=16671
lovel=0
lpc=q8onQyL73sMRyMFDoxHHwn2h50EiUn/CpiUWQpM6pMFLjp5AoiRbQWdHF8DXmeDATP8PwdJXakFoy41A+dDMwAUx0r/RbjZA62b3wE9BOz4dYwJBEjGmQVigNMJHhb9B
lpc_rms=-40.66
release_start=196816
release_xfade=7629
sample=Horn_sustain_PP_C5.opus
tune=-25
</region>

<region>
hivel=127
key=D#3
loop_end=172799
loop_mode=loop_continuous
loop_start=51718
loop_xfade=16770
lovel=0
lpc=hs8aQ3IGksNBC6xC+pCxQaC1dkJvajrB+uDEwHVtUMFOfT4/SWXrvtQ2Vj5kv2i/IMotQJ0GqcDps8rA4zCLv0Lxv0CfptFA3smJQFiKmcAS85fA6KkewAJ8q0DYvJ2/
lpc_rms=-47.15
release_start=189244
release_xfade=7336
sample=Horn_sustain_PP_D#3.opus
tune=+3
</region>

<region>
hivel=127
key=D#4
loop_end=172683
loop_mode=loop_continuous
loop_start=51684
loop_xfade=16758
lovel=0
lpc=ty0XQ0aKr8N+mkFD5oubQfeHF0IarDnCOHGawDVQQb9EEp9ANKf4wBxOIcAdJ7xAMv5BQPksST+jnwDB5WlmP45JyEDqEnNATROYwLfFpcBOLfY/8iMqQZaDbMGhKc1A
lpc_rms=-44.94
release_start=188114
release_xfade=7292
sample=Horn_sustain_PP_D#4.opus
tune=-11
</region>

<region>
hivel=127
key=D#5
loop_end=162178
loop_mode=loop_continuous
loop_start=48540
loop_xfade=15739
lovel=0
lpc=J8g1Q6j/6MPtutVD+fQuwzuf9UJw/Q3DtON9Qpa+oMGeVFZC5oZ3wu8xAkIg7Ke/k4xkwT6Da0FGZ4HAXor5QKncLb9WtqTBuSAKQa0f/kGysQnCQcLgQb2bG8LzuddB
lpc_rms=-36.94
release_start=177495
release_xfade=6880
sample=Horn_sustain_PP_D#5.opus
tune=-21
</region>

<region>
hivel=127
key=D3
loop_end=174607
loop_mode=loop_continuous
loop_start=52259
loop_xfade=16945
lovel=0
lpc=lXjbQjbQb8NtoOdCTQt2QQziE0Ikh9HBOLUpwRrK28Aen4NAt1wqwCQudj8k9YJAgvaBQAA1s7/LdSXAsL0BwAkp8L+YgmZAp7cRQC6KEL+qaiW/vQ+rPiqf4MB7nLhA
lpc_rms=-48.33
release_start=190744
release_xfade=7394
sample=Horn_sustain_PP_D3.opus
tune=-5
</region>

<region>
hivel=127
key=D4
loop_end=172436
loop_mode=loop_continuous
loop_start=51610
loop_xfade=16734
lovel=0
lpc=YmMOQ11WnsNKByZDQNVxQMp0UUIqsxnCkm49wdby9r+m/kFBCRGrwLCD1sCYPlXAjWxKQD38FkFlPPk/+0e7wPB/EsBzTeg/yQITP7gIKMAZ8/0/yhldwISUiUCJqVG/
lpc_rms=-45.60
release_start=181111
release_xfade=7020
sample=Horn_sustain_PP_D4.opus
tune=-14
</region>

<region>
hivel=127
key=D5
loop_end=171748
loop_mode=loop_continuous
loop_start=51404
loop_xfade=16668
lovel=0
lpc=m86MQ2rOXMT7XIRE0dQHxIv/6EJvE8/CrrgGQ3KHY8IEAd3BOhUGQq28PUHF58NBec2Mwsa4hsFBuNtCnjgWwgGIt8I/IvFCdPM7wnD2CsJ7gQ1BHV4GQ6OdOcOi26BC
lpc_rms=-32.81
release_start=197191
release_xfade=7644
sample=Horn_sustain_PP_D5.opus
tune=-26
</region>

<region>
hivel=127
key=E3
loop_end=164731
loop_mode=loop_continuous
loop_start=49304
loop_xfade=15987
lovel=0
lpc=2Zg4Q148z8N2cVRDXFQ3vkRzo0JY9/XBqOiawUCfdMFGe64/GBmSwbFHg0DGBIRB/bfAQKZ0nMAPYdTAD0NBwO8IsECPSk9AEzzWQH2FKMGddfi/TJYnQYbhV8HlsdNA
lpc_rms=-43.15
release_start=178130
release_xfade=6905
sample=Horn_sustain_PP_E3.opus
tune=+11
</region>

<region>
hivel=127
key=E4
loop_end=168485
loop_mode=loop_continuous
loop_start=50427
loop_xfade=16351
lovel=0
lpc=2zc5Q7my1MMn9mpDifOmQTjKO0ImvXLCjy60wN+fb0ACzINAViDfwDj9m8DODfe/1AL2QPBgNkFdyA++/6iCwLLEjsCEqdDAeUs9v/yeQEELYrFAzPKBv/WR8sGrdatB
lpc_rms=-43.26
release_start=189741
release_xfade=7355
sample=Horn_sustain_PP_E4.opus
tune=-1
</region>

<region>
hivel=127
key=E5
loop_end=158840
loop_mode=loop_continuous
loop_start=47540
loop_xfade=15415
lovel=0
lpc=NHEfQxIU18Oc6PlDC6Gpw6FwUEMzei7D8AQZQ9FbucLHCE9CgyA8wmQJEUKN6KTAEhoBwPIq07/6cDhAZJmCwSL2C0IFA+O+yhElwjuuS0KsnobC1fvTQk/iyMJgRThC
lpc_rms=-33.74
release_start=183474
release_xfade=7112
sample=Horn_sustain_PP_E5.opus
tune=-31
</region>

<region>
hivel=127
key=F#2
loop_end=175970
loop_mode=loop_continuous
loop_start=52668
loop_xfade=17077
lovel=0
lpc=igdNQkCkqcLD83ZB+tCUQHzvokEplwA/Zi2Dv4iascBnHgHAJe9qv20UZz/BN40/4QupPzClTD+vbYi9NviWv3gZDr+frVK/sbSyPgUtlj7RtJy9N23GvSvVIz/dOCi+
lpc_rms=-58.08
release_start=188119
release_xfade=7292
sample=Horn_sustain_PP_F#2.opus
tune=+8
</region>

<region>
hivel=127
key=F#3
loop_end=172513
loop_mode=loop_continuous
loop_start=51633
loop_xfade=16742
lovel=0
lpc=NJ0pQ/v8t8NpWh1DsV4ZQngDikLxFQvCeUijwTAzu8G6JIFA3pUeQB5zuz/nJjtAyhaavigTWkCUwg7AGh0eQIoaNj2EJp5A42AzwJ4pmsDCe9u/2VqkPqynoT8xL7M/
lpc_rms=-44.92
release_start=194062
release_xfade=7522
sample=Horn_sustain_PP_F#3.opus
tune=+4
</region>

<region>
hivel=127
key=F#4
loop_end=174228
loop_mode=loop_continuous
loop_start=52146
loop_xfade=16908
lovel=0
lpc=LwmXQ/ALNsRB69ZDzw74Qa+Tu0Kg3MfCFYrpwVVTwcE0KV8/74uOwXUe8EFXKxtCr1yLQTY0zcHGdRTC4kkowF/6rEFBRrw/BUfkwCsoO0FsjR1BF+ihQHdhVcLcrwdC
lpc_rms=-38.52
release_start=193387
release_xfade=7496
sample=Horn_sustain_PP_F#4.opus
tune=-8
</region>

<region>
hikey=F2
hivel=127
lokey=C2
loop_end=175970
loop_mode=loop_continuous
loop_start=52668
loop_xfade=17077
lovel=0
lpc=kDiaQgD4G8Mc/25CnXxYQQiL60FUr0XBMQO3wK4y/MBFLOu/Kyyyvp/r5Dw6a3ZAOj0aQJ6v4z8tTKc+BqIswGSpBcCsO/S/ZCsdQGs00D7NCDE9jXxpPlt3nL9LRoE/
lpc_rms=-52.30
pitch_keycenter=F2
release_start=193466
release_xfade=7499
sample=Horn_sustain_PP_F2.opus
tune=+7
</region>

<region>
hivel=127
key=F3
loop_end=171474
loop_mode=loop_continuous
loop_start=51322
loop_xfade=16641
lovel=0
lpc=F/rUQs+LbsN1jfJCSVVhQbPXEEJ95wLCLS0EwWv4hcArEdhAAfVFPx1ppL/xM8m/2o3eP0z0ur/zTy2/kAOsv42p5j8GLANAYvjAQMW9nsCBZY3A23z+vwTc2UCK+gnA
lpc_rms=-48.34
release_start=196188
release_xfade=7605
sample=Horn_sustain_PP_F3.opus
</region>

<region>
hivel=127
key=F4
loop_end=168270
loop_mode=loop_continuous
loop_start=50363
loop_xfade=16330
lovel=0
lpc=Lv6SQ2cRMMScnMtDx5q0QTZk6kLTOc7CR6UBwgl+CMLljG6+Q5cIQSz3w0GN+KhBFzE3QR4+tMHGK0vBIiFcwQuLUL8SQidBeccKQTLqj0Fc0Zk/nWkLwOXkYcKroR1C
lpc_rms=-38.77
release_start=192797
release_xfade=7473
sample=Horn_sustain_PP_F4.opus
tune=-8
</region>

<region>
hikey=A#5
hivel=127
lokey=F5
loop_end=158006
loop_mode=loop_continuous
loop_start=47291
loop_xfade=15334
lovel=0
lpc=KtR0Q21WFcR0ZhpEzES+wxWLhEMte1XDSFsbQ7Vq4MLve6dCDzVWwknXd0K+0sXCXrkWQ5n6+8IPfrRCM1COwq6QP0HtNLxBYMtbQhKGbcIKzRnAeZxgQQc+/cA8irxB
lpc_rms=-27.85
pitch_keycenter=F5
release_start=170417
release_xfade=6606
sample=Horn_sustain_PP_F5.opus
tune=-47
</region>

<region>
hivel=127
key=G#2
loop_end=175970
loop_mode=loop_continuous
loop_start=52668
loop_xfade=17077
lovel=0
lpc=MXa+QmHPP8Ops5FCLD+FQfNtCkL4x4/B/r2ewJHHrsBGqSpAwrITwGuqJcChY2m+bvTgP9fVj0D1iiS+4OBdvwLRyr97hP2+c6G/PwZ3Qb/SCwDAOZoBvxexGkCuW5S9
lpc_rms=-50.63
release_start=184926
release_xfade=7168
sample=Horn_sustain_PP_G#2.opus
tune=+11
</region>

<region>
hivel=127
key=G#3
loop_end=170114
loop_mode=loop_continuous
loop_start=50915
loop_xfade=16509
lovel=0
lpc=SM5fQ5lMFMTb9OdD+SVrwn3M5kHp0dnCl5vKQUXe0EFUwqxBF+HpwWsdZMGVCt9A4XqJQbMdQ0Bq4IrB/r05wfnqPUE3NWpB0cs7wF0eMcDRdhDBmb7mPwyCu0C4BSPA
lpc_rms=-39.25
release_start=182072
release_xfade=7057
sample=Horn_sustain_PP_G#3.opus
tune=-5
</region>

<region>
hivel=127
key=G#4
loop_end=171797
loop_mode=loop_continuous
loop_start=51419
loop_xfade=16672
lovel=0
lpc=VTKwQ7lSTMQwivJDfJB9wcadzULPaIzCJO+xwGgLRsKt96bAUGoxwDJNcEEaHLZBbxMwQZDys7+FgJTBK3sUwb6u88B3CwBBJsJ7QUXWU0EULE/BjuqGQQXihcJiazVC
lpc_rms=-37.29
release_start=187360
release_xfade=7262
sample=Horn_sustain_PP_G#4.opus
tune=-6
</region>

<region>
hivel=127
key=G2
loop_end=175970
loop_mode=loop_continuous
loop_start=52668
loop_xfade=17077
lovel=0
lpc=X8HWQq3GUMPqsoFCDa6XQd+iPEIvYgDBGti2wBMcZcHXALLAyZVpwIrjEUC1J74/9/qDQJpRfUB9mBI/AQBYwMsM9L/gH4+/GjzJP7Mwgj+V4dU+MSufvjoUQsAJ+BFA
lpc_rms=-50.09
release_start=188481
release_xfade=7306
sample=Horn_sustain_PP_G2.opus
tune=+16
</region>

<region>
hivel=127
key=G3
loop_end=173310
loop_mode=loop_continuous
loop_start=51871
loop_xfade=16819
lovel=0
lpc=MMluQ6E9BMSxSm1DmtxSQsNAvEIZblzCBGfRwTbau8FYMyRAfrZRv7qgJ0CASBRAgVofP6dyt0AkJgVAhqyNvwdnt799ZUW//UC/P1/CZMD1F4PAy/9tQP41s0APqnDA
lpc_rms=-41.78
release_start=181561
release_xfade=7038
sample=Horn_sustain_PP_G3.opus
tune=+2
</region>

<region>
hivel=127
key=G4
loop_end=172579
loop_mode=loop_continuous
loop_start=51653
loop_xfade=16748
lovel=0
lpc=qN1jQ8vjEsTPKOVD0OKPwo5+nkHZUJXCoEIdQhXu38CoW7rAnTgzwW4HF0Fec7tA6GK7PdNOIEHQayHA1Xa5wDBTMsEt7QtB69LwwICtoz9CvmBBC66IQfYFVMKVQedB
lpc_rms=-39.30
release_start=180725
release_xfade=7005
sample=Horn_sustain_PP_G4.opus
tune=-5
</region>
</group>

<group>
ampeg_attack=1.5
ampeg_release=0.45
group_label=MF
lpc_hicc1=84
lpc_locc1=43

<region>
hivel=127
key=A#2
loop_end=169234
loop_mode=loop_continuous
loop_start=50651
loop_xfade=16424
lovel=0
lpc=ouzJQjppr8M3Ef1DRR7FwyxZQ0NdUMnCrwiaQtu1PsIw31tBhDUHQY56qsEggrhB5H9NwWypGUH4A4XBpK+iQekblMG5QJJBJyRwwSv0mkCPj0w/VjwOP8d14b9M8GQ/
lpc_rms=-36.46
release_start=179695
release_xfade=6965
sample=Horn_sustain_MF_A#2.opus
tune=-11
</region>

<region>
hivel=127
key=A#3
loop_end=167174
loop_mode=loop_continuous
loop_start=50035
loop_xfade=16224
lovel=0
lpc=ECXaQjb2zsO/wixEclkrxLw/6UPenXzDRgsSQ2eVzcLnmCpCBTEJQnI6pcIhHr9Clb6pwjrOk0KhearCw4zYQum83MJLIppCrmvywZbaZ0BdupnA69mHQYnjnMHAxgBB
lpc_rms=-29.45
release_start=178707
release_xfade=6927
sample=Horn_sustain_MF_A#3.opus
tune=-6
</region>

<region>
hivel=127
key=A#4
loop_end=164017
loop_mode=loop_continuous
loop_start=49090
loop_xfade=15917
lovel=0
lpc=EOkMQ95ZA8RBYVZEG2dHxPCH8kMeS4TDwhA8Q2YE58LnFAVCsfaBwbKIDUJwnoRA6MmSwgS5nEIuQC7CaalRQhYal8JOaExCFw71wC6nD0FaOYPC84jhQhPwtMKz5/RB
lpc_rms=-29.47
release_start=180421
release_xfade=6993
sample=Horn_sustain_MF_A#4.opus
tune=-14
</region>

<region>
hivel=127
key=A2
loop_end=160650
loop_mode=loop_continuous
loop_start=48082
loop_xfade=15591
lovel=0
lpc=QkM2Qh4aKsPPMJJDA/2dw8oLeUPLMh/Dps62QjGxWMIZAhpCxC7swYg9ikEsYfy/LbsGwX98IEHQPPHA6Xb8QPk5P8FId1xBi8cxwekO5UCuOKLAp8SKQEfmOcBHl5I/
lpc_rms=-38.78
release_start=167495
release_xfade=6492
sample=Horn_sustain_MF_A2.opus
tune=-8
</region>

<region>
hivel=127
key=A3
loop_end=167876
loop_mode=loop_continuous
loop_start=50245
loop_xfade=16292
lovel=0
lpc=o8efQtlaj8NM0tpDG6rCwyn/gkPICTbDDzMIQ70otsKd00RCJ+2kwaN60EAmjD3AYn6jPyYQU0E5xRHClbtOQjqUTsKPWghCdsUNwU+oE8HbBLtByTcHwsJTzkF70uzA
lpc_rms=-35.68
release_start=182587
release_xfade=7077
sample=Horn_sustain_MF_A3.opus
tune=-10
</region>

<region>
hivel=127
key=A4
loop_end=169362
loop_mode=loop_continuous
loop_start=50690
loop_xfade=16436
lovel=0
lpc=9OKqQuUZpsNrBxhEq6k0xPCqJETisQLEs8+/Q4vHgMMb+SJDOxvGwr4TMkIy3XO/Sh6CwbxC6kH2EmjCMTOvQi4H0sK6ENtCIpzCwmyujELju0TCYcYoQofW98H7ZjFB
lpc_rms=-29.90
release_start=182253
release_xfade=7064
sample=Horn_sustain_MF_A4.opus
tune=-11
</region>

<region>
hivel=127
key=B2
loop_end=170128
loop_mode=loop_continuous
loop_start=50919
loop_xfade=16510
lovel=0
lpc=c4pvQhnPWMMLf7VD0pDEw/KIpUN/vHTDUGkmQ0HwzMKJx1JCy0SpwQ2fqkC3WZdAEoEpwZJ3Z0F9+4/Bbc6PQUAfa8HjNZNBLqzxwX+REkIc+f3BCn61QWIFTsGyLnRA
lpc_rms=-36.22
release_start=187302
release_xfade=7260
sample=Horn_sustain_MF_B2.opus
tune=-7
</region>

<region>
hivel=127
key=B3
loop_end=172714
loop_mode=loop_continuous
loop_start=51693
loop_xfade=16761
lovel=0
lpc=yTj6Qr1L5cPNqDVEWJgjxFSZukOnfCLDtC63Qm4jiMJIhw9C7isqweilfcA9U8NBOR0QwqCStkFDs/e/a3QoP2Gzf8FPP6BBGbOuv4LXssFDgQJClo3FwfS7JEEdNw3A
lpc_rms=-33.07
release_start=193790
release_xfade=7512
sample=Horn_sustain_MF_B3.opus
tune=-16
</region>

<region>
hivel=127
key=B4
loop_end=161718
loop_mode=loop_continuous
loop_start=48402
loop_xfade=15694
lovel=0
lpc=ss07Q2ccLcQbPJJEydiXxBsHYkQjPAvEumifQ6tiMMO9OMtCcTWfwqP6p0ImqGrCS5vNwHQghUJP9bfCT5qwQsPUksK8R1hCOt/MwCzPOsK4WTxCxu/cwF2Rj8FMV0VB
lpc_rms=-25.34
release_start=176235
release_xfade=6831
sample=Horn_sustain_MF_B4.opus
tune=-19
</region>

<region>
hivel=127
key=C#3
loop_end=171630
loop_mode=loop_continuous
loop_start=51369
loop_xfade=16656
lovel=0
lpc=SzoWQkU0CcOTqGhDqOt9wwYwVENPAhnD/iXIQgO2Z8Irv+xBTfF2wcaKFkHDN0TA4vKowDMzRUHJW3rBOtGJQWDMl8HHhZZByIJTweeNZ0C7XjdAfeNAwF8HQT+r0FQ+
lpc_rms=-40.11
release_start=193733
release_xfade=7510
sample=Horn_sustain_MF_C#3.opus
tune=-3
</region>

<region>
hivel=127
key=C#4
loop_end=164448
loop_mode=loop_continuous
loop_start=49219
loop_xfade=15959
lovel=0
lpc=7u2ZQkXDksO6twJE9eYVxBHb/kMIR6zDxrM+Q71srMLuW85BA4mEQH70AMEEY1LA2yAaQcWKLL7VUnDBybvVQStK/sFkE/hBTIWswUgAmUDP294/zy21QLDAAMHYpCNA
lpc_rms=-33.73
release_start=181492
release_xfade=7035
sample=Horn_sustain_MF_C#4.opus
tune=-13
</region>

<region>
hivel=127
key=C#5
loop_end=158944
loop_mode=loop_continuous
loop_start=47572
loop_xfade=15425
lovel=0
lpc=6KmNQiaYi8MBVgBEADMRxCn630M0nH3Dbj0AQzOrksKxCfVBlRmVQSDtR8JsqxhCxXtfQWfdbsLHbB5CVVMwQspAv8JAVi9CVXFVQg0SscJoRihCJZtpQTjlzcGWqBtB
lpc_rms=-34.55
release_start=177604
release_xfade=6884
sample=Horn_sustain_MF_C#5.opus
tune=-5
</region>

<region>
hivel=127
key=C3
loop_end=171864
loop_mode=loop_continuous
loop_start=51439
loop_xfade=16679
lovel=0
lpc=PHlUQrwvQcOMyJlDQfyNw6YsLUNedqfCQWs4QmBq+8FMTodB2z5CwFMQQsDrMG1AF7KWwMYS40Dq8R3B3HwxQWJ7EMFMyvJAuTf9wHZSq0ATlby/5/M3vy9l/T+OL4y/
lpc_rms=-40.37
release_start=189273
release_xfade=7337
sample=Horn_sustain_MF_C3.opus
tune=-23
</region>

<region>
hikey=C4
hivel=127
lokey=C4
loop_end=173267
loop_mode=loop_continuous
loop_start=51859
loop_xfade=16815
lovel=0
lpc=hF6sQkZJp8NP4BBEiB8ZxAUP60MUbpjD1Dk6Q7pw4ML3T4ZCNAn5wYH/x8D6GBhCydBFwjonFEKxtK/BitnFQWwv9cHmQklBX3aUQVphvcEv8Zm/VaejQSengcHscJFA
lpc_rms=-32.73
release_start=176006
release_xfade=6822
sample=Horn_sustain_MF_C4.opus
tune=-3
</region>

<region>
hivel=127
key=C5
loop_end=163887
loop_mode=loop_continuous
loop_start=49051
loop_xfade=15905
lovel=0
lpc=n7IcQx4sBcRdb0pEj709xEV0B0QZs6jD/IZGQ7VgFcMpeQlDar7DwlMkKEKBYbBBwtmSwtrFpEJWoYTCsjh1Qq0accJCU5lCDZ7Qwo9LnUL4uJDBWPTXP19gj8EIumtB
lpc_rms=-29.22
release_start=184251
release_xfade=7142
sample=Horn_sustain_MF_C5.opus
tune=-29
</region>

<region>
hivel=127
key=D#3
loop_end=168328
loop_mode=loop_continuous
loop_start=50380
loop_xfade=16336
lovel=0
lpc=MgkGQqNQ+sJkA2ND1GyMw+VzjEMEEXnDEq1JQ4JXFMP7ScZCQxJ5wkf0GEJA4aHBMiKYQDiZBUEi/o3BhQayQQE6tMHr6KNBy0l2wYxD2EBmFrI+K5L8v0PqEz82eqY+
lpc_rms=-36.39
release_start=180215
release_xfade=6985
sample=Horn_sustain_MF_D#3.opus
tune=-30
</region>

<region>
hivel=127
key=D#4
loop_end=164326
loop_mode=loop_continuous
loop_start=49182
loop_xfade=15947
lovel=0
lpc=P0eaQneqkcN6j/BDluPlw348kkOxdxzD1+zKQqYYk8L/8yNCNY5awc27UcCyqYhBW+v3wVL6NEKuyT3CbWTtQTIvGsHc78ZA2PbdwDqnSECO1GfBaFD8QbrmyMHab+JA
lpc_rms=-35.29
release_start=177865
release_xfade=6894
sample=Horn_sustain_MF_D#4.opus
tune=-34
</region>

<region>
hivel=127
key=D#5
loop_end=155320
loop_mode=loop_continuous
loop_start=46487
loop_xfade=15073
lovel=0
lpc=wVxVQ0TxH8R6J05EmYMaxK9CwkNwwYvDdScjQ2NVVsIGbGlCd++5wghLcEJPpr3BtvgeQsky3MHEzF0+tp8TwqOPskI8jX7COBSGQbM+p0HSDsnCAC9CQ5gHMsNQ04xC
lpc_rms=-25.65
release_start=166788
release_xfade=6465
sample=Horn_sustain_MF_D#5.opus
tune=-27
</region>

<region>
hivel=127
key=D3
loop_end=168551
loop_mode=loop_continuous
loop_start=50447
loop_xfade=16357
lovel=0
lpc=bncYQi8zCsNGK2lDkEJ/w7VOW0OM2SnD0Vz2QvZWnsKDDSZCdcKCwWhMVT/uZBtBoCZswTPNgEGXfojBjoiaQeozn8HClY1BMmdiwf6YFkEE0oTA6rffP6so4L/HsUc/
lpc_rms=-39.45
release_start=177803
release_xfade=6892
sample=Horn_sustain_MF_D3.opus
tune=-17
</region>

<region>
hivel=127
key=D4
loop_end=167596
loop_mode=loop_continuous
loop_start=50161
loop_xfade=16265
lovel=0
lpc=2XyrQiuqncMvFe9Dry24w3rhCUNjChHCeKxrQqoXf8J0vZ1BzqkXQSRYxMDhWmRACr7ZwKcblkDcBAfBvQqWQQd1esFgwFM/cHIjQVSOTcFqovdAlmlRQLAPJcGeNq9A
lpc_rms=-38.56
release_start=190452
release_xfade=7382
sample=Horn_sustain_MF_D4.opus
tune=-30
</region>

<region>
hivel=127
key=D5
loop_end=165007
loop_mode=loop_continuous
loop_start=49386
loop_xfade=16013
lovel=0
lpc=JuC1Qm7rpsNzag5EIUMXxG526EM31pDDOZghQ0xFssJJmHlCVR07wsyvS0Fx9XhBWje7wX0zGUKaMS3Ca5vgQKScIkIT6FTCxwQmQjnvysEtFrnAg/M5QpXbSMIYOptB
lpc_rms=-33.45
release_start=185476
release_xfade=7189
sample=Horn_sustain_MF_D5.opus
tune=-22
</region>

<region>
hivel=127
key=E3
loop_end=160911
loop_mode=loop_continuous
loop_start=48160
loop_xfade=15616
lovel=0
lpc=TGhnQnz+V8N0OsFDvJHow9/130P6677DN1SUQ7BAT8OvsfpC2O5uwg3hXUFlS1VBkh6+wbQt30GN7wvCDcYhQjiT/sF0k1RBPESXvuqAP8BZdDZAKIJIwPjSEkBuDuW+
lpc_rms=-32.40
release_start=176820
release_xfade=6854
sample=Horn_sustain_MF_E3.opus
tune=+7
</region>

<region>
hivel=127
key=E4
loop_end=167156
loop_mode=loop_continuous
loop_start=50030
loop_xfade=16222
lovel=0
lpc=r3yPQu8Gi8PBJf5DF14ZxP1mEURGJPLDFaq7Q42XisNV1UJDNIYAww2km0LgWOvBTlmwwR8TaUJoiJPCqreoQl0iusLIS71CoACrwvqji0I0LWbCEZQuQjqZtMEzZbJA
lpc_rms=-30.15
release_start=183145
release_xfade=7099
sample=Horn_sustain_MF_E4.opus
tune=-18
</region>

<region>
hivel=127
key=E5
loop_end=150835
loop_mode=loop_continuous
loop_start=45145
loop_xfade=14638
lovel=0
lpc=SftQQ0x7AcR+XPpD/XZ9w3FbPkOoSWXD5yAzQ+/+aMLHyEnBaR/ywHVCMkK3phTCVVIAQplVpsDFeUFB3QOUwoWJwEKx7BnCaTELwqFSpUIphHbCIpOMQsjo2sLkFYtC
lpc_rms=-31.15
release_start=168272
release_xfade=6523
sample=Horn_sustain_MF_E5.opus
tune=-25
</region>

<region>
hivel=127
key=F#2
loop_end=167722
loop_mode=loop_continuous
loop_start=50199
loop_xfade=16277
lovel=0
lpc=bOd4QnznYsO6g7lDVOq8w0UzkENZ8zvDEGHcQuxbZMLaRLZBWNRDwEaBX8Bkb5NAl0TNwJCaFUEE+CbBmMIHQSEN0cCnXNJAnOwKwemHLkFILzHBPugYQWSaxcB5EwFA
lpc_rms=-37.61
release_start=184909
release_xfade=7167
sample=Horn_sustain_MF_F#2.opus
tune=+17
</region>

<region>
hivel=127
key=F#3
loop_end=165913
loop_mode=loop_continuous
loop_start=49658
loop_xfade=16101
lovel=0
lpc=jvlmQuzEUcON/bZDvx/dw5r44UOg4NXDJY28Q3fJmcPATGhD0VAiw8sx00LPCnLCKRG7QbfeIEEXfC/CoYuKQmhflcLB84RCFMtdwvXdLUKhCwzCDjrjQT/og8HoKp1A
lpc_rms=-30.99
release_start=182287
release_xfade=7066
sample=Horn_sustain_MF_F#3.opus
tune=+4
</region>

<region>
hivel=127
key=F#4
loop_end=167608
loop_mode=loop_continuous
loop_start=50165
loop_xfade=16266
lovel=0
lpc=4wLUQsnQz8NbhUFEhAxqxI4SUkQZ/xXEqAuqQ0sjAsOd/SRBmVknQbCdZUFAODzBPc1BwbizokHCfpzB+P64QQJvgsGXCfi/3L0Iv08nGUJTUKfCa2WxQlLERsI+WktB
lpc_rms=-29.72
release_start=188325
release_xfade=7300
sample=Horn_sustain_MF_F#4.opus
tune=-16
</region>

<region>
hikey=F2
hivel=127
lokey=C2
loop_end=166445
loop_mode=loop_continuous
loop_start=49817
loop_xfade=16153
lovel=0
lpc=AI59QhLlXsOMJahDNtmQw/JVJ0NrDanCgN5FQuyt38EChSpBlk6cwHByF0HYchvBR29vPn41MkEWXnjBGVhAQU9z2cB9KJFAuZhDwNwbAL97ojpAlwg7v8sD6L93G44/
lpc_rms=-40.13
pitch_keycenter=F2
release_start=176026
release_xfade=6823
sample=Horn_sustain_MF_F2.opus
tune=-2
</region>

<region>
hivel=127
key=F3
loop_end=158895
loop_mode=loop_continuous
loop_start=47557
loop_xfade=15420
lovel=0
lpc=x9ZGQiE0N8NLhaBDDcG8wzw9skPOXZXD6QVkQwEuHMMoQrZChSEhwo+BqUDOoJBBwtv0wWtoDEKSWw/C/scEQpxozsFbsZNBR5N9wSDhiUGcH5jBdcuGQbmgGsFhXSlA
lpc_rms=-33.49
release_start=173463
release_xfade=6724
sample=Horn_sustain_MF_F3.opus
tune=+10
</region>

<region>
hivel=127
key=F4
loop_end=159217
loop_mode=loop_continuous
loop_start=47653
loop_xfade=15451
lovel=0
lpc=IKuwQpHXqMPE7Q5EYpcQxIFSykMjY1zDmHjYQuqxUMLkq25BdTurwM0p5UEpFRjC4LH1P/l5bUI+J7XCTdWAQiiEs8H12ZhBgLs0wnw2XULfOzbCeeoeQqmX/sGmbT1B
lpc_rms=-32.76
release_start=182253
release_xfade=7064
sample=Horn_sustain_MF_F4.opus
tune=-20
</region>

<region>
hikey=A#5
hivel=127
lokey=F5
loop_end=152829
loop_mode=loop_continuous
loop_start=45741
loop_xfade=14832
lovel=0
lpc=tkyBQ9bCDcQWNABE/sKbw1cpmEOvx4TDdYcbQ/3XmsLcCShC2thcwQrlAEEVsxLBn7VdQofTccIxeohCAa1Lwvu3+sGToxRCWiGNQgIxP8F6YrHCTgWNQuXSMMJ//j1C
lpc_rms=-27.49
pitch_keycenter=F5
release_start=171558
release_xfade=6650
sample=Horn_sustain_MF_F5.opus
tune=-38
</region>

<region>
hivel=127
key=G#2
loop_end=165390
loop_mode=loop_continuous
loop_start=49501
loop_xfade=16050
lovel=0
lpc=u2YpQlESF8MF3XpDlSKKwyfwd0M9E03DdMIgQ4h+6sID16BCoUZWwu4LAkI0d1bBB9MewD8FaUEa0LzBOuzzQcwwB8I5hwJCzd/Xwc2wiUFhbt3AskrmP9n8tr90uns/
lpc_rms=-36.81
release_start=180555
release_xfade=6999
sample=Horn_sustain_MF_G#2.opus
tune=-6
</region>

<region>
hivel=127
key=G#3
loop_end=165562
loop_mode=loop_continuous
loop_start=49553
loop_xfade=16067
lovel=0
lpc=/zYAQrNS18LP6jJD9y1Yw5Q+YkPSYFzD5jNLQwyTMcNr7RFDEvffwln/n0JJZEfCUZnMQaeKDMF2yTDAQyEiQThke8ED8J9BsYqbwe7peEH4CEfBbv8pQQah7sBxXSZA
lpc_rms=-30.26
release_start=183843
release_xfade=7126
sample=Horn_sustain_MF_G#3.opus
tune=-11
</region>

<region>
hivel=127
key=G#4
loop_end=159490
loop_mode=loop_continuous
loop_start=47735
loop_xfade=15478
lovel=0
lpc=L5wMQ1aJCsTEz35EPmKXxKXDiEQaYFDE9UcORMEWrcPyHS1Dhk6Jwp7Q5UHXrHTB4f2Dv2Zot0FXERzCIAwuQqaQN8LubIBCvXi7wn7i00LQGMbCIJO2QuG7gsLK+a9B
lpc_rms=-24.64
release_start=176851
release_xfade=6855
sample=Horn_sustain_MF_G#4.opus
tune=-7
</region>

<region>
hivel=127
key=G2
loop_end=149691
loop_mode=loop_continuous
loop_start=44802
loop_xfade=14527
lovel=0
lpc=Uc0WQlszBMNlnlRDWyxaw9fdLUMG1/nCbb6oQlxhScLjhLtBmRaVwIn928CRgUVB+UE+wRApGUFZjP7AqlTkQOA3BsFn0i9BNdctwa2M1EB8os2/MOf4Piwm8b+XJrE/
lpc_rms=-41.41
release_start=154524
release_xfade=5990
sample=Horn_sustain_MF_G2.opus
tune=-33
</region>

<region>
hivel=127
key=G3
loop_end=159717
loop_mode=loop_continuous
loop_start=47803
loop_xfade=15500
lovel=0
lpc=Mi0NQlYl/sL/sWFDMdCLw7f7j0N3KIfDzu9tQ3JqRMMD/RdDOYvfwuy/nUKxpEzCmrjTQdsKiMATUTXByzWNQSmwjMFpdYZBDF6FwUzNgkEKVVrBUdECQbDbGsAzwxU9
lpc_rms=-34.21
release_start=174959
release_xfade=6782
sample=Horn_sustain_MF_G3.opus
tune=-8
</region>

<region>
hivel=127
key=G4
loop_end=162351
loop_mode=loop_continuous
loop_start=48591
loop_xfade=15756
lovel=0
lpc=cwKVQrJUh8MtreJDt7X1w8C72UM8jsHDQrysQ/ofisNmskpDov4ZwxNk4UKZf2XCCkZhQAL1H0IvaqvC3wn9QjQH/sJkKqlC/yEawjXHJUFA6dY/6ySkP4ZWC8HqqbhA
lpc_rms=-31.95
release_start=176136
release_xfade=6827
sample=Horn_sustain_MF_G4.opus
tune=-17
</region>
</group>

<group>
ampeg_attack=1.5
ampeg_release=0.45
group_label=FF
lpc_hicc1=127
lpc_locc1=85

<region>
hivel=127
key=A#2
loop_end=157624
loop_mode=loop_continuous
loop_start=47177
loop_xfade=15297
lovel=0
lpc=eHQ/QWbd+8GAYxxCMVISwkQbBkKntfjBFujgQcT8xME6LahBjnSRwcqJfUEnglDBuKspQUZ7C8E2UN9AIHiswDvGckAMU+6/ng3YPhcROj+Mrsq/VorWPy5/er+NmKw+
lpc_rms=-31.78
release_start=164262
release_xfade=6367
sample=Horn_sustain_FF_A#2.opus
tune=+8
</region>

<region>
hivel=127
key=A#3
loop_end=170980
loop_mode=loop_continuous
loop_start=51174
loop_xfade=16593
lovel=0
lpc=PIJpQV9eDMKxKCVCmuUcwgsfFUJVQQjCZrLiQTe+vsEHm6ZBxumPwTETaEGbfwnBAYcYQLPFHkAjSsXAqiAMQdq/GsG/LhlBJvcCwcU08kCkj+bAfGWzQMtAWcDzSLc/
lpc_rms=-24.16
release_start=191782
release_xfade=7434
sample=Horn_sustain_FF_A#3.opus
tune=-15
</region>

<region>
hivel=127
key=A#4
loop_end=160820
loop_mode=loop_continuous
loop_start=48133
loop_xfade=15607
lovel=0
lpc=LLCMQEGRB8HlDABBrjLWwOI0vUBAyKXAcAygQLX4mMA6EIlApceBwF4ZakD9xT/AKysXQPkp079zL3o/h3UDv3zTkT5oaQA+UPyfvZehsD5AvdK90+TkvjxViD42QHk8
lpc_rms=-25.31
release_start=166784
release_xfade=6465
sample=Horn_sustain_FF_A#4.opus
tune=-22
</region>

<region>
hivel=127
key=A2
loop_end=161140
loop_mode=loop_continuous
loop_start=48229
loop_xfade=15638
lovel=0
lpc=yXcQQV40vMFdVvFBthHuweBQ3EHUCsXBHbypQfxXkMHR5nJB8D5FwcYhGUF4qtnAW+CEQNR56L93kse9Uye3PynRBcD7FzlAdRJmwLdgdUAZz1rAa50hQKPrq79l0Mo+
lpc_rms=-33.21
release_start=168649
release_xfade=6537
sample=Horn_sustain_FF_A2.opus
tune=-7
</region>

<region>
hivel=127
key=A3
loop_end=171829
loop_mode=loop_continuous
loop_start=51428
loop_xfade=16675
lovel=0
lpc=ipNBQYNDBsI/MDtCuCdNwng/T0IH00HC6ZInQuO3CcLN9NxB+7muwc+whUFwlz3BG4HsQIsEjsAtdVVAgUIOwF+vxT2lNNY/4y7Lv4RGYD9r9mu+g4D5Pb3nN75Axgg9
lpc_rms=-30.09
release_start=186148
release_xfade=7215
sample=Horn_sustain_FF_A3.opus
tune=-8
</region>

<region>
hivel=127
key=A4
loop_end=159051
loop_mode=loop_continuous
loop_start=47604
loop_xfade=15435
lovel=0
lpc=n4iuQLuVJ8GBnxdBRVwAwRvn5UCMvMXA0smzQI2XpsCaNo1AnwJNwO0h9T/0N1q/HUQWPizayj5BZOi+o5mEP+jDu7+oqN4/Ol/kv+PDlz+hdT2/ADASP1J9277g1po+
lpc_rms=-23.22
release_start=164139
release_xfade=6362
sample=Horn_sustain_FF_A4.opus
tune=-19
</region>

<region>
hivel=127
key=B2
loop_end=167907
loop_mode=loop_continuous
loop_start=50254
loop_xfade=16295
lovel=0
lpc=hHWbQKWbH8HafyZBk9oZwdBSDkG9Q/rARijVQIVZrcDI54lAclxXwBN8EEAVCZK/mwaVPoDT5z74NoK/+Ye5PwgR7788qw1AOkvhv7NnsT9455K/cI1dP9A/8L6JCiY+
lpc_rms=-35.45
release_start=176884
release_xfade=6856
sample=Horn_sustain_FF_B2.opus
tune=-22
</region>

<region>
hivel=127
key=B3
loop_end=165654
loop_mode=loop_continuous
loop_start=49580
loop_xfade=16076
lovel=0
lpc=PsMFQXpimMHGyq1B6tmgwSBpkUHmlIfBfYxuQVwgQcGiTxhB9hLywJPBvECjOGTAFKOkP9lHHj+VwQXAzWZcQA4hmcAJIsJA+9O9wCnZmUA+omDACkTmP2z29L4oIJA+
lpc_rms=-28.87
release_start=176058
release_xfade=6824
sample=Horn_sustain_FF_B3.opus
tune=-22
</region>

<region>
hivel=127
key=B4
loop_end=150994
loop_mode=loop_continuous
loop_start=45192
loop_xfade=14653
lovel=0
lpc=6wHBQPYSIcFsHAxBzvrrwJJm7ECutvDAuC3WQFUptMA6g6JAnliewO3cgUAXrhvA6DS0P+Z4Hb9EGKU+nrf3PmG00b+1zMc/Hx9qv/j9fD/28lG/0LQgP/jpVL7T3x8/
lpc_rms=-21.99
release_start=165789
release_xfade=6426
sample=Horn_sustain_FF_B4.opus
tune=-27
</region>

<region>
hivel=127
key=C#3
loop_end=160705
loop_mode=loop_continuous
loop_start=48099
loop_xfade=15596
lovel=0
lpc=Kb2ZQNfhFcGfKBFBbbz/wFBG7UCEu9nA56i5QFNfnsApl3ZAR3EswLy8AkCmCq2/3j1fP6Zzk76P25W9gvUqP4ybY7/dvns/Sc+fv+rdoT+TDaW/nWiBP4EjHL+Bm6s+
lpc_rms=-33.10
release_start=180106
release_xfade=6981
sample=Horn_sustain_FF_C#3.opus
tune=-15
</region>

<region>
hivel=127
key=C#4
loop_end=162384
loop_mode=loop_continuous
loop_start=48601
loop_xfade=15759
lovel=0
lpc=GQfGQJMhT8F+tltB59FNwfGsQEEEyi7B/qgRQaK1+sANMdVAzuekwG3edkBEnyTA5+XAP8PTvb4WSci+pb2bP+t13r8rugNAjYHjvwsmpj9El36/PPtbPwpxZr8QRPc+
lpc_rms=-27.29
release_start=183981
release_xfade=7131
sample=Horn_sustain_FF_C#4.opus
tune=+1
</region>

<region>
hivel=127
key=C#5
loop_end=156268
loop_mode=loop_continuous
loop_start=46771
loop_xfade=15165
lovel=0
lpc=2eCFQDds3sC6YNZAcWzCwJ2cs0COVajAwpiYQBsga8BZAWBAIHFPwDUxBEAALJq/xNY1P793Bb8jGBM/cb4hPhp1F7/HDGA/Ba4Av+VK7D5LHwy/XHkCPzgpfL5aQQw/
lpc_rms=-24.52
release_start=175735
release_xfade=6812
sample=Horn_sustain_FF_C#5.opus
tune=-32
</region>

<region>
hivel=127
key=C3
loop_end=169930
loop_mode=loop_continuous
loop_start=50860
loop_xfade=16491
lovel=0
lpc=uH7CQI1mT8FWfVpBSYxDwdqkLkEl7RnBS54CQatD3cBGurVAWDuNwP/6TUAAIADA4BiOPxkfm75p+O6+rXGMP4Rj1r8Jmh9A+X03wAi1MkDzyhHADm+6P9hFGL9BzTA+
lpc_rms=-34.52
release_start=184184
release_xfade=7139
sample=Horn_sustain_FF_C3.opus
tune=-27
</region>

<region>
hikey=C4
hivel=127
lokey=C4
loop_end=164837
loop_mode=loop_continuous
loop_start=49336
loop_xfade=15997
lovel=0
lpc=B1oBQUrZmMHvYLBBdiqpweOVnkFU4YjB2ndgQTFoPcECpyNBa20UwZhmBEFz1MXAxX58QPJ0CcDWVp8++l4oP6eZHL/zmoY/a0P/vxu8O0D+ZSzAf/zOP/B8G7+ksMs9
lpc_rms=-27.45
release_start=179082
release_xfade=6942
sample=Horn_sustain_FF_C4.opus
tune=-17
</region>

<region>
hivel=127
key=C5
loop_end=163428
loop_mode=loop_continuous
loop_start=48914
loop_xfade=15860
lovel=0
lpc=LmBaQGGJqsD1tI5AgelowBQsVUD2+znAlc81QF44NcBgVQZA9Cqfvw7VNj/Dltm93D06vkjGsD58JAm/F4hVP+9ohb9eLY0/DxE8v2XmAD8uRN++Gf5IP2Z7+L429sk+
lpc_rms=-27.23
release_start=181757
release_xfade=7045
sample=Horn_sustain_FF_C5.opus
tune=-21
</region>

<region>
hivel=127
key=D#3
loop_end=165690
loop_mode=loop_continuous
loop_start=49591
loop_xfade=16080
lovel=0
lpc=LlTGQNWYQcEljDlBP7EfweTkEEHWW/7ALgXFQAyvmsBGS3JA4McgwDYLvD+eCOO+vBS8vpSbgz/wDKS/amraP74IBMBRPBNAOOr5v2qryz9LpMu/MvCkPxW4E7/N8KI+
lpc_rms=-29.45
release_start=183584
release_xfade=7116
sample=Horn_sustain_FF_D#3.opus
tune=-16
</region>

<region>
hivel=127
key=D#4
loop_end=166880
loop_mode=loop_continuous
loop_start=49947
loop_xfade=16195
lovel=0
lpc=MaSCQECu+MAQePlAuIPfwM9NzkB6fbXAJICaQLfCgsAmX2BAuU9NwL8zNUDX4QbAxrjWPxdko78CxFo/WyUmvnOSLb4LERQ/v1Mov482JD8fGOC+uP8hPtG3ZL01GS8+
lpc_rms=-28.41
release_start=178033
release_xfade=6901
sample=Horn_sustain_FF_D#4.opus
tune=-31
</region>

<region>
hivel=127
key=D#5
loop_end=149885
loop_mode=loop_continuous
loop_start=44860
loop_xfade=14546
lovel=0
lpc=8/KMQAXvvMCcnqBA/sSLwD1/i0Dvm2XAx6lQQC6WFsBI1No/cBnHvzF5hD+tkby+bT55vosPyj55ECO/OSKxP+G5i79IEcg/21WKv6SwPD9TGTU+QmWIPlZKgz4ozzi9
lpc_rms=-23.15
release_start=158267
release_xfade=6135
sample=Horn_sustain_FF_D#5.opus
tune=-33
</region>

<region>
hivel=127
key=D3
loop_end=165133
loop_mode=loop_continuous
loop_start=49424
loop_xfade=16026
lovel=0
lpc=1aiSQH6oCsGXywVBYeHvwOEf30AHg8XA2TGnQBvSlcDmUX1AlWszwCFA9T/QP4+/qUvaPgkJKz5Z9wW/r7RuP8UJxr8Vh/M//onNv8WntT9ju4G/aYkvP5Pwqb6EOjA+
lpc_rms=-31.68
release_start=179752
release_xfade=6968
sample=Horn_sustain_FF_D3.opus
tune=-9
</region>

<region>
hivel=127
key=D4
loop_end=166041
loop_mode=loop_continuous
loop_start=49696
loop_xfade=16114
lovel=0
lpc=GveyQDKiKsGfbDRBrLMvwUi9JkEUVhPBHIftQF9+usBDbY9AqO89wIwB4j9JpAG/bN1vvl4Lgj+JII2/vDCcPzdg0b/bCgxASJENwMqK/j+/1pq/+e8iP+9lEL6w7jo+
lpc_rms=-26.75
release_start=186696
release_xfade=7237
sample=Horn_sustain_FF_D4.opus
tune=-36
</region>

<region>
hivel=127
key=D5
loop_end=157034
loop_mode=loop_continuous
loop_start=47000
loop_xfade=15240
lovel=0
lpc=WvuZQIRn/cAghNJAtZqqwAIko0Aek4zAQNl0QG5SYsCJtklA5NQRwL2M4D/5kaW/tqByP26FWL317Ai/Lq+QPysfhb9Tcm0/Wfdbv+B7ZT+9NUG/zQxEP9gpFL8Qvzg/
lpc_rms=-23.93
release_start=172189
release_xfade=6674
sample=Horn_sustain_FF_D5.opus
tune=-50
</region>

<region>
hivel=127
key=E3
loop_end=167367
loop_mode=loop_continuous
loop_start=50093
loop_xfade=16242
lovel=0
lpc=RfSQQEsdD8HowQ1B+en4wGdR3kDOGMTAKtauQFPOlcAdCHBAmIQ9wF7IEUCq07i/dmM4Pwt3kbxiSRS/SXCVP6xnvr96KOc/BNTov+iG3j+VG92/GWejP8UwC79+eHg+
lpc_rms=-31.94
release_start=177401
release_xfade=6876
sample=Horn_sustain_FF_E3.opus
tune=-21
</region>

<region>
hivel=127
key=E4
loop_end=159752
loop_mode=loop_continuous
loop_start=47814
loop_xfade=15503
lovel=0
lpc=WKiCQMlh9sBnUv1AI3XzwATE20C03L3AL3iZQNnAgcCbdmpA/O9FwA6j5z9sGCm/9d1fPopJcT4foA2/MCsaP4GcRb+VY40/LApkvyRRKj8N6O6+e2ylPrS7hL5raTo+
lpc_rms=-29.57
release_start=173380
release_xfade=6721
sample=Horn_sustain_FF_E4.opus
tune=-23
</region>

<region>
hivel=127
key=E5
loop_end=145295
loop_mode=loop_continuous
loop_start=43486
loop_xfade=14100
lovel=0
lpc=Z9g6QBR7lsDO7pFAlzKBwBkdgEBTel7AdrFDQN9JLMCu+CFAWsTgv3P8SD99fee9YcZfvKfEEz+JIoC/YUGZP5MRlb8WVMY/lzt6v1ftFz9I5MG+PerRPrzTBr71FnU+
lpc_rms=-29.16
release_start=151330
release_xfade=5866
sample=Horn_sustain_FF_E5.opus
tune=-26
</region>

<region>
hivel=127
key=F#2
loop_end=162958
loop_mode=loop_continuous
loop_start=48773
loop_xfade=15814
lovel=0
lpc=l1a1QFuvOcFCSz9BjZ8rwT5xHEHg4wjBuvfgQCKUt8CqU5JApSlpwHUHMUDCBva/AhefPwjzu77W5Z6+gip0Pyx6wL8nRP0/IIz6v+mS8D8wJbi/QARoP0OXJL9u/Ns+
lpc_rms=-33.66
release_start=174931
release_xfade=6781
sample=Horn_sustain_FF_F#2.opus
tune=-11
</region>

<region>
hivel=127
key=F#3
loop_end=168566
loop_mode=loop_continuous
loop_start=50451
loop_xfade=16359
lovel=0
lpc=S1aOQDMaFcEiRRxBMHYJwWPH9ECLPdbAGK2vQE3GgcBZFDBApqLov4Ifmz+KyRS/rm83PrX5gz657GW/gGWzP0Fj379FEBFAZTQawCLm/j+SUdm/GZ6vP2egNr+qcFs+
lpc_rms=-33.84
release_start=189061
release_xfade=7328
sample=Horn_sustain_FF_F#3.opus
tune=-18
</region>

<region>
hivel=127
key=F#4
loop_end=160781
loop_mode=loop_continuous
loop_start=48121
loop_xfade=15603
lovel=0
lpc=lqieQFZqGsGmMg9ByNbmwFdNvECFGJLAF3pvQJqjaMBadHBAx9NuwBSrVEAEuBjAIGOVPzOf477wZSE/49sTv9HJOLyWYWI/YTWUv/Bjwj/ZQKq/cK70Pu3qaL0mrS29
lpc_rms=-26.17
release_start=176251
release_xfade=6832
sample=Horn_sustain_FF_F#4.opus
tune=-24
</region>

<region>
hikey=F2
hivel=127
lokey=C2
loop_end=163777
loop_mode=loop_continuous
loop_start=49018
loop_xfade=15894
lovel=0
lpc=QbedQNIUJMHk2CtB6tcdwcArEkF9i/7A36LIQDM4ncBlq3FA+lwlwA4FuD9/Bsi+QcHLvntKjj8I9rW/2gPFP3dA4r9LxgBAMCTvv4xvxD/jMpu/ewFoP2XFHr9xi5k+
lpc_rms=-36.92
pitch_keycenter=F2
release_start=174663
release_xfade=6770
sample=Horn_sustain_FF_F2.opus
tune=-31
</region>

<region>
hivel=127
key=F3
loop_end=169115
loop_mode=loop_continuous
loop_start=50616
loop_xfade=16412
lovel=0
lpc=MFvxQJzchcEjapJBTE6FwfQxbUH8jU3BiLclQR8fBsEPM+NAxK28wNLUi0AwYC3AODncPxj9Ab88s4O7N5rkPgKsgL/wAcg/ZwH/v1llCkCIbBfAUc8GQIzGsL8YKhw/
lpc_rms=-29.27
release_start=182475
release_xfade=7073
sample=Horn_sustain_FF_F3.opus
tune=-8
</region>

<region>
hivel=127
key=F4
loop_end=164673
loop_mode=loop_continuous
loop_start=49286
loop_xfade=15981
lovel=0
lpc=zUtFQeIR2sFo3fBBqoP3wWP48kGSdd3B7UnEQax2pcHKfnNBVCg7wUbCM0F2FBbBgSbYQIeJOsAEE549uQh7QHwPCcEV0TJB8GNRwYjMT0HkJSLBXoKzQDcKHcBHdWw/
lpc_rms=-21.39
release_start=187767
release_xfade=7278
sample=Horn_sustain_FF_F4.opus
tune=-18
</region>

<region>
hikey=A#5
hivel=127
lokey=F5
loop_end=134221
loop_mode=loop_continuous
loop_start=40172
loop_xfade=13026
lovel=0
lpc=/JZxQPEsscAzpptAGHqCwG/zeEDYcj7A09RLQF0pSsDlbi1AyRvpvxEYmz+e13S/kUJrPzvmkr6gT1o+JYMDP6DXLr+iiiA/XpMJPpxjxj48HY++OH4hP4HUbL/Pm1k/
lpc_rms=-26.21
pitch_keycenter=F5
release_start=138263
release_xfade=5359
sample=Horn_sustain_FF_F5.opus
tune=-34
</region>

<region>
hivel=127
key=G#2
loop_end=157431
loop_mode=loop_continuous
loop_start=47119
loop_xfade=15278
lovel=0
lpc=mmagQNaFIMGGtB1BpNoIwRQr+UBKzODA137CQNpqo8BaCIhAU09awNOcLEB6mQLASz6+Pzyscr/Y9B0/Xza/vQz7Mr9Mwro/ncfKv6xevT+ij66/qsmZPwkhIL/XRDk+
lpc_rms=-32.69
release_start=164818
release_xfade=6389
sample=Horn_sustain_FF_G#2.opus
tune=-13
</region>

<region>
hivel=127
key=G#3
loop_end=166811
loop_mode=loop_continuous
loop_start=49926
loop_xfade=16188
lovel=0
lpc=9bDHQPE0TsFLRVBBNgk4wQOdKkECYyDBe5MLQVx52MAqL5ZAbuNVwBUADECUwje/GCrtvvyXjT8kS4y/EuqoP+oP2L/eFApA+PgPwA8j6D9tB5K/37pxPy7lE799cA8+
lpc_rms=-27.64
release_start=181627
release_xfade=7040
sample=Horn_sustain_FF_G#3.opus
tune=-11
</region>

<region>
hivel=127
key=G#4
loop_end=160053
loop_mode=loop_continuous
loop_start=47904
loop_xfade=15532
lovel=0
lpc=7CNHQItircDN9Z9AWV6FwDlCZEAmZ0rAv1IuQLWSEsCcgt8/oMySv8j6Oz8IO6y+IBidPo0Drr2V46m8z4qRPsMoSr9XiDY/6F0Nv3/x1T4Y+Vq+L4YBP4/BHr/9hck+
lpc_rms=-28.39
release_start=179736
release_xfade=6967
sample=Horn_sustain_FF_G#4.opus
tune=-16
</region>

<region>
hivel=127
key=G2
loop_end=157696
loop_mode=loop_continuous
loop_start=47198
loop_xfade=15304
lovel=0
lpc=ft7gQO+agMHQrZRBW4KOwXqKh0Gb/XzBFSFgQSiwP8EzCRxBArL/wOjT1UAgqZnAv887QDIEl78cFgK+L4CwP61JDcD2Dy1AyDoqwPeYDkDI/uS/+ymvP+zDO79tTJM+
lpc_rms=-34.74
release_start=165633
release_xfade=6420
sample=Horn_sustain_FF_G2.opus
tune=-21
</region>

<region>
hivel=127
key=G3
loop_end=160347
loop_mode=loop_continuous
loop_start=47992
loop_xfade=15561
lovel=0
lpc=nsMLQe9crcGE+9dBAtzRwQnqwEH0d67B7AyZQc7rhME/KVlBN/knwU3SBkG15NTAvo+TQBSpF8CrXJI/YFeSvpVDNb8CYd8/EmMJwJYqEUB0kP6/Uuq8P5cVSL8LVYI+
lpc_rms=-32.18
release_start=171896
release_xfade=6663
sample=Horn_sustain_FF_G3.opus
tune=-19
</region>

<region>
hivel=127
key=G4
loop_end=163812
loop_mode=loop_continuous
loop_start=49029
loop_xfade=15897
lovel=0
lpc=oBuiQE15FsEwOQtBnHDxwDhq0kBUCL/AKYexQG1voMCmPoRAB+ZOwIlTLEDCqg3ATmX4P8QJoL+G4AU/dxFAPQ+oYr9jCaw/N2iiv3OcYz/5Xwm/OVwqP6gBAb+4Oac+
lpc_rms=-24.97
release_start=177989
release_xfade=6899
sample=Horn_sustain_FF_G4.opus
tune=-24
</region>
</group>